<?xml version="1.0" encoding="UTF-8"?>
<svg xmlns="http://www.w3.org/2000/svg" xmlns:xlink="http://www.w3.org/1999/xlink" width="24px" height="24px" viewBox="0 0 24 24" version="1.1">
<g id="surface1">
<path style=" stroke:none;fill-rule:nonzero;fill:rgb(88.627451%,87.058824%,88.627451%);fill-opacity:1;" d="M 11.300781 23.007812 L 11.300781 22.679688 L 11.253906 22.539062 L 9.460938 22.539062 L 9.460938 23.164062 L 9.507812 23.242188 L 11.488281 23.242188 L 11.472656 23.195312 C 11.375 23.1875 11.300781 23.105469 11.300781 23.007812 Z M 21.304688 23.007812 L 21.304688 22.679688 L 21.257812 22.539062 L 13.195312 22.539062 L 13.148438 22.679688 L 13.148438 23.007812 C 13.148438 23.105469 13.074219 23.1875 12.976562 23.195312 L 12.960938 23.242188 L 21.492188 23.242188 L 21.472656 23.195312 C 21.378906 23.1875 21.304688 23.105469 21.304688 23.007812 Z M 21.304688 23.007812 "/>
<path style=" stroke:none;fill-rule:nonzero;fill:rgb(0.784314%,78.039216%,86.666667%);fill-opacity:1;" d="M 4.753906 12.984375 C 5.808594 12.984375 6.671875 12.121094 6.671875 11.066406 L 6.671875 10.445312 L 2.835938 10.445312 L 2.835938 11.066406 C 2.835938 12.121094 3.699219 12.984375 4.753906 12.984375 Z M 4.753906 12.984375 "/>
<path style=" stroke:none;fill-rule:nonzero;fill:rgb(2.745098%,69.803922%,80.392157%);fill-opacity:1;" d="M 4.007812 11.066406 L 4.007812 10.445312 L 2.835938 10.445312 L 2.835938 11.066406 C 2.835938 12.121094 3.699219 12.984375 4.753906 12.984375 C 4.933594 12.984375 5.109375 12.960938 5.28125 12.910156 C 4.535156 12.628906 4.007812 11.910156 4.007812 11.066406 Z M 4.007812 11.066406 "/>
<path style=" stroke:none;fill-rule:nonzero;fill:rgb(95.294118%,94.117647%,95.294118%);fill-opacity:1;" d="M 8.796875 21.324219 L 8.796875 8.113281 C 8.796875 5.882812 6.984375 4.074219 4.753906 4.074219 C 2.523438 4.074219 0.710938 5.882812 0.710938 8.113281 L 0.710938 21.324219 Z M 2.835938 8.269531 C 2.835938 7.214844 3.699219 6.351562 4.753906 6.351562 C 5.808594 6.351562 6.671875 7.214844 6.671875 8.269531 L 6.671875 11.066406 C 6.671875 12.121094 5.808594 12.984375 4.753906 12.984375 C 3.699219 12.984375 2.835938 12.121094 2.835938 11.066406 Z M 2.835938 8.269531 "/>
<path style=" stroke:none;fill-rule:nonzero;fill:rgb(88.627451%,87.058824%,88.627451%);fill-opacity:1;" d="M 5.4375 4.132812 C 5.210938 4.09375 4.984375 4.074219 4.753906 4.074219 C 2.523438 4.074219 0.710938 5.882812 0.710938 8.113281 L 0.710938 21.324219 L 2.082031 21.324219 L 2.082031 8.113281 C 2.082031 6.117188 3.53125 4.457031 5.4375 4.132812 Z M 5.4375 4.132812 "/>
<path style=" stroke:none;fill-rule:nonzero;fill:rgb(79.607843%,76.862745%,80%);fill-opacity:1;" d="M 4.753906 13.335938 C 3.503906 13.335938 2.484375 12.316406 2.484375 11.066406 L 2.484375 8.269531 C 2.484375 7.019531 3.503906 6 4.753906 6 C 6.003906 6 7.023438 7.019531 7.023438 8.269531 L 7.023438 11.066406 C 7.023438 12.316406 6.003906 13.335938 4.753906 13.335938 Z M 4.753906 6.703125 C 3.890625 6.703125 3.1875 7.40625 3.1875 8.269531 L 3.1875 11.066406 C 3.1875 11.929688 3.890625 12.632812 4.753906 12.632812 C 5.617188 12.632812 6.320312 11.929688 6.320312 11.066406 L 6.320312 8.269531 C 6.320312 7.40625 5.617188 6.703125 4.753906 6.703125 Z M 4.753906 6.703125 "/>
<path style=" stroke:none;fill-rule:nonzero;fill:rgb(100%,88.235294%,46.666667%);fill-opacity:1;" d="M 6.859375 16.605469 L 2.648438 16.605469 C 2.492188 16.605469 2.363281 16.476562 2.363281 16.320312 L 2.363281 14.726562 C 2.363281 14.570312 2.492188 14.441406 2.648438 14.441406 L 6.859375 14.441406 C 7.015625 14.441406 7.144531 14.570312 7.144531 14.726562 L 7.144531 16.320312 C 7.144531 16.476562 7.015625 16.605469 6.859375 16.605469 Z M 6.859375 16.605469 "/>
<path style=" stroke:none;fill-rule:nonzero;fill:rgb(100%,81.960784%,35.686275%);fill-opacity:1;" d="M 3.695312 16.320312 L 3.695312 14.726562 C 3.695312 14.570312 3.824219 14.441406 3.980469 14.441406 L 2.648438 14.441406 C 2.492188 14.441406 2.363281 14.570312 2.363281 14.726562 L 2.363281 16.320312 C 2.363281 16.476562 2.492188 16.605469 2.648438 16.605469 L 3.980469 16.605469 C 3.824219 16.605469 3.695312 16.476562 3.695312 16.320312 Z M 3.695312 16.320312 "/>
<path style=" stroke:none;fill-rule:nonzero;fill:rgb(0.784314%,78.039216%,86.666667%);fill-opacity:1;" d="M 9.507812 23.242188 L 0.257812 23.242188 C 0.117188 23.242188 0 23.128906 0 22.984375 L 0 21.535156 C 0 21.390625 0.117188 21.273438 0.257812 21.273438 L 9.25 21.273438 C 9.390625 21.273438 9.507812 21.390625 9.507812 21.535156 Z M 9.507812 23.242188 "/>
<path style=" stroke:none;fill-rule:nonzero;fill:rgb(2.745098%,69.803922%,80.392157%);fill-opacity:1;" d="M 2.050781 22.984375 L 2.050781 21.535156 C 2.050781 21.390625 2.167969 21.273438 2.3125 21.273438 L 0.257812 21.273438 C 0.117188 21.273438 0 21.390625 0 21.535156 L 0 22.984375 C 0 23.128906 0.117188 23.242188 0.257812 23.242188 L 2.3125 23.242188 C 2.167969 23.242188 2.050781 23.128906 2.050781 22.984375 Z M 2.050781 22.984375 "/>
<path style=" stroke:none;fill-rule:nonzero;fill:rgb(0.784314%,78.039216%,86.666667%);fill-opacity:1;" d="M 4.132812 18.207031 L 2.578125 18.207031 C 2.382812 18.207031 2.226562 18.050781 2.226562 17.855469 C 2.226562 17.660156 2.382812 17.503906 2.578125 17.503906 L 4.132812 17.503906 C 4.328125 17.503906 4.484375 17.660156 4.484375 17.855469 C 4.484375 18.050781 4.328125 18.207031 4.132812 18.207031 Z M 6.929688 18.207031 L 6.828125 18.207031 C 6.632812 18.207031 6.476562 18.050781 6.476562 17.855469 C 6.476562 17.660156 6.632812 17.503906 6.828125 17.503906 L 6.929688 17.503906 C 7.125 17.503906 7.28125 17.660156 7.28125 17.855469 C 7.28125 18.050781 7.125 18.207031 6.929688 18.207031 Z M 5.777344 18.207031 L 5.671875 18.207031 C 5.480469 18.207031 5.320312 18.050781 5.320312 17.855469 C 5.320312 17.660156 5.480469 17.503906 5.671875 17.503906 L 5.777344 17.503906 C 5.972656 17.503906 6.128906 17.660156 6.128906 17.855469 C 6.128906 18.050781 5.972656 18.207031 5.777344 18.207031 Z M 5.777344 18.207031 "/>
<path style=" stroke:none;fill-rule:nonzero;fill:rgb(2.745098%,69.803922%,80.392157%);fill-opacity:1;" d="M 23.175781 14.816406 L 22.601562 14.816406 C 22.34375 14.816406 22.089844 14.902344 21.890625 15.066406 L 21.851562 15.113281 L 22.21875 16.304688 L 22.242188 16.316406 C 22.339844 16.359375 22.4375 16.410156 22.527344 16.464844 L 23.175781 16.464844 C 23.628906 16.464844 24 16.097656 24 15.640625 C 24 15.183594 23.628906 14.816406 23.175781 14.816406 Z M 11.925781 16.464844 C 12.015625 16.410156 12.113281 16.359375 12.210938 16.316406 L 12.234375 16.304688 L 12.59375 15.136719 L 12.5625 15.066406 C 12.359375 14.902344 12.109375 14.816406 11.851562 14.816406 L 11.277344 14.816406 C 10.820312 14.816406 10.453125 15.183594 10.453125 15.640625 C 10.453125 16.097656 10.820312 16.464844 11.277344 16.464844 Z M 11.925781 16.464844 "/>
<path style=" stroke:none;fill-rule:nonzero;fill:rgb(0.392157%,50.980392%,98.823529%);fill-opacity:1;" d="M 19.875 12.828125 L 14.578125 12.828125 C 13.785156 12.828125 13.085938 13.347656 12.851562 14.101562 L 12.171875 16.324219 C 12.457031 16.191406 12.773438 16.125 13.089844 16.125 L 21.363281 16.125 C 21.679688 16.125 21.992188 16.191406 22.28125 16.324219 L 21.597656 14.101562 C 21.367188 13.347656 20.667969 12.828125 19.875 12.828125 Z M 19.875 12.828125 "/>
<path style=" stroke:none;fill-rule:nonzero;fill:rgb(0.392157%,44.705882%,98.431373%);fill-opacity:1;" d="M 14.421875 14.101562 C 14.652344 13.347656 15.351562 12.828125 16.144531 12.828125 L 14.578125 12.828125 C 13.785156 12.828125 13.085938 13.347656 12.851562 14.101562 L 12.171875 16.324219 C 12.457031 16.191406 12.773438 16.125 13.089844 16.125 L 13.800781 16.125 Z M 14.421875 14.101562 "/>
<path style=" stroke:none;fill-rule:nonzero;fill:rgb(0.784314%,78.039216%,86.666667%);fill-opacity:1;" d="M 12.582031 16.183594 L 13.1875 14.207031 C 13.378906 13.59375 13.933594 13.179688 14.578125 13.179688 L 19.875 13.179688 C 20.515625 13.179688 21.074219 13.59375 21.261719 14.207031 L 21.871094 16.183594 C 22.167969 16.253906 22.445312 16.382812 22.6875 16.570312 L 22.722656 16.558594 L 21.933594 14 C 21.65625 13.089844 20.828125 12.476562 19.875 12.476562 L 14.578125 12.476562 C 13.625 12.476562 12.796875 13.089844 12.515625 14 L 11.730469 16.558594 L 11.765625 16.570312 C 12.007812 16.382812 12.285156 16.253906 12.582031 16.183594 Z M 12.582031 16.183594 "/>
<path style=" stroke:none;fill-rule:nonzero;fill:rgb(40.784314%,36.862745%,40.784314%);fill-opacity:1;" d="M 11.570312 21.226562 C 11.453125 21.226562 11.347656 21.199219 11.253906 21.148438 L 11.253906 23.007812 C 11.253906 23.136719 11.359375 23.242188 11.488281 23.242188 L 12.960938 23.242188 C 13.089844 23.242188 13.195312 23.136719 13.195312 23.007812 L 13.195312 21.226562 Z M 11.570312 21.226562 "/>
<path style=" stroke:none;fill-rule:nonzero;fill:rgb(33.333333%,30.588235%,33.72549%);fill-opacity:1;" d="M 11.570312 21.226562 C 11.453125 21.226562 11.347656 21.199219 11.253906 21.148438 L 11.253906 23.007812 C 11.253906 23.136719 11.359375 23.242188 11.488281 23.242188 L 12.191406 23.242188 L 12.191406 21.226562 Z M 11.570312 21.226562 "/>
<path style=" stroke:none;fill-rule:nonzero;fill:rgb(40.784314%,36.862745%,40.784314%);fill-opacity:1;" d="M 22.882812 21.226562 L 21.257812 21.226562 L 21.257812 23.007812 C 21.257812 23.136719 21.363281 23.242188 21.492188 23.242188 L 22.964844 23.242188 C 23.09375 23.242188 23.199219 23.136719 23.199219 23.007812 L 23.199219 21.148438 C 23.101562 21.199219 22.992188 21.226562 22.882812 21.226562 Z M 22.882812 21.226562 "/>
<path style=" stroke:none;fill-rule:nonzero;fill:rgb(33.333333%,30.588235%,33.72549%);fill-opacity:1;" d="M 21.257812 21.226562 L 21.257812 23.007812 C 21.257812 23.136719 21.359375 23.242188 21.492188 23.242188 L 22.140625 23.242188 L 22.140625 21.226562 Z M 21.257812 21.226562 "/>
<path style=" stroke:none;fill-rule:nonzero;fill:rgb(0.784314%,78.039216%,86.666667%);fill-opacity:1;" d="M 21.59375 19.722656 L 21.59375 19.101562 C 21.59375 18.144531 22.199219 17.308594 23.109375 17.011719 L 23.140625 16.953125 C 22.730469 16.421875 22.085938 16.078125 21.363281 16.078125 L 13.089844 16.078125 C 12.363281 16.078125 11.722656 16.421875 11.3125 16.953125 L 11.34375 17.011719 C 12.25 17.308594 12.855469 18.144531 12.855469 19.101562 L 12.855469 19.722656 L 12.851562 19.722656 L 12.902344 19.816406 L 13.628906 19.816406 C 13.914062 19.816406 14.179688 19.679688 14.347656 19.449219 C 14.46875 19.28125 14.664062 19.183594 14.871094 19.183594 L 19.582031 19.183594 C 19.785156 19.183594 19.980469 19.28125 20.101562 19.449219 C 20.269531 19.679688 20.535156 19.8125 20.820312 19.816406 L 21.546875 19.816406 L 21.597656 19.722656 Z M 21.59375 19.722656 "/>
<path style=" stroke:none;fill-rule:nonzero;fill:rgb(2.745098%,69.803922%,80.392157%);fill-opacity:1;" d="M 13.089844 16.078125 C 12.363281 16.078125 11.722656 16.421875 11.308594 16.953125 C 12.109375 17.195312 12.722656 17.871094 12.871094 18.707031 L 12.871094 18.328125 C 12.871094 17.085938 13.875 16.078125 15.117188 16.078125 Z M 13.089844 16.078125 "/>
<path style=" stroke:none;fill-rule:nonzero;fill:rgb(100%,94.117647%,67.843137%);fill-opacity:1;" d="M 10.839844 19.769531 L 10.839844 18.328125 C 10.839844 17.808594 11.015625 17.332031 11.308594 16.953125 C 12.234375 17.230469 12.902344 18.089844 12.902344 19.101562 L 12.902344 19.769531 Z M 10.839844 19.769531 "/>
<path style=" stroke:none;fill-rule:nonzero;fill:rgb(100%,88.235294%,46.666667%);fill-opacity:1;" d="M 23.613281 19.769531 L 23.613281 18.328125 C 23.613281 17.808594 23.4375 17.332031 23.140625 16.953125 C 22.21875 17.230469 21.546875 18.089844 21.546875 19.101562 L 21.546875 19.769531 Z M 23.613281 19.769531 "/>
<path style=" stroke:none;fill-rule:nonzero;fill:rgb(100%,94.117647%,67.843137%);fill-opacity:1;" d="M 10.839844 19.769531 L 10.839844 18.328125 C 10.839844 17.808594 11.015625 17.332031 11.308594 16.953125 C 12.234375 17.230469 12.902344 18.089844 12.902344 19.101562 L 12.902344 19.769531 Z M 10.839844 19.769531 "/>
<path style=" stroke:none;fill-rule:nonzero;fill:rgb(88.627451%,87.058824%,88.627451%);fill-opacity:1;" d="M 20.820312 19.769531 C 20.550781 19.769531 20.296875 19.640625 20.140625 19.421875 C 20.011719 19.242188 19.800781 19.136719 19.582031 19.136719 L 14.871094 19.136719 C 14.648438 19.136719 14.4375 19.242188 14.308594 19.421875 C 14.152344 19.640625 13.898438 19.769531 13.628906 19.769531 L 10.839844 19.769531 L 10.839844 20.546875 C 10.839844 20.949219 11.167969 21.273438 11.570312 21.273438 L 22.882812 21.273438 C 23.285156 21.273438 23.613281 20.949219 23.613281 20.546875 L 23.613281 19.769531 Z M 20.820312 19.769531 "/>
<path style=" stroke:none;fill-rule:nonzero;fill:rgb(79.607843%,76.862745%,80%);fill-opacity:1;" d="M 12.871094 20.546875 L 12.871094 19.769531 L 10.839844 19.769531 L 10.839844 20.546875 C 10.839844 20.949219 11.167969 21.273438 11.570312 21.273438 L 13.597656 21.273438 C 13.195312 21.273438 12.871094 20.949219 12.871094 20.546875 Z M 12.871094 20.546875 "/>
<path style=" stroke:none;fill-rule:nonzero;fill:rgb(99.215686%,27.843137%,33.333333%);fill-opacity:1;" d="M 17.226562 14.019531 L 21.164062 8.128906 C 23.269531 4.980469 21.015625 0.757812 17.226562 0.757812 C 13.4375 0.757812 11.179688 4.980469 13.285156 8.128906 Z M 17.226562 14.019531 "/>
<path style=" stroke:none;fill-rule:nonzero;fill:rgb(98.431373%,16.862745%,22.745098%);fill-opacity:1;" d="M 15.457031 7.773438 C 14.769531 7.246094 14.324219 6.410156 14.324219 5.472656 C 14.324219 4.515625 14.789062 3.667969 15.503906 3.140625 C 16.117188 2.070312 17.136719 1.230469 18.421875 0.902344 C 18.042969 0.808594 17.644531 0.757812 17.226562 0.757812 C 13.4375 0.757812 11.179688 4.980469 13.285156 8.128906 L 17.226562 14.019531 L 18.421875 12.234375 L 15.675781 8.128906 C 15.597656 8.015625 15.527344 7.894531 15.457031 7.773438 Z M 15.457031 7.773438 "/>
<path style=" stroke:none;fill-rule:nonzero;fill:rgb(100%,88.235294%,46.666667%);fill-opacity:1;" d="M 19.273438 3.421875 C 20.410156 4.558594 20.410156 6.394531 19.273438 7.527344 C 18.140625 8.660156 16.304688 8.660156 15.171875 7.527344 C 14.039062 6.394531 14.039062 4.558594 15.171875 3.421875 C 16.304688 2.289062 18.140625 2.289062 19.273438 3.421875 Z M 19.273438 3.421875 "/>
<path style=" stroke:none;fill-rule:nonzero;fill:rgb(100%,81.960784%,35.686275%);fill-opacity:1;" d="M 15.960938 5.472656 C 15.960938 4.15625 16.839844 3.042969 18.042969 2.691406 C 17.777344 2.613281 17.503906 2.574219 17.226562 2.574219 C 15.625 2.574219 14.324219 3.871094 14.324219 5.472656 C 14.324219 7.078125 15.625 8.375 17.226562 8.375 C 17.511719 8.375 17.785156 8.335938 18.042969 8.257812 C 16.839844 7.90625 15.960938 6.792969 15.960938 5.472656 Z M 15.960938 5.472656 "/>
<path style=" stroke:none;fill-rule:nonzero;fill:rgb(99.215686%,50.196078%,52.941176%);fill-opacity:1;" d="M 17.226562 8.726562 C 15.433594 8.726562 13.972656 7.269531 13.972656 5.472656 C 13.972656 3.679688 15.433594 2.222656 17.226562 2.222656 C 19.019531 2.222656 20.480469 3.679688 20.480469 5.472656 C 20.480469 7.269531 19.019531 8.726562 17.226562 8.726562 Z M 17.226562 2.925781 C 15.820312 2.925781 14.675781 4.066406 14.675781 5.472656 C 14.675781 6.878906 15.820312 8.023438 17.226562 8.023438 C 18.632812 8.023438 19.777344 6.878906 19.777344 5.472656 C 19.777344 4.066406 18.632812 2.925781 17.226562 2.925781 Z M 17.226562 2.925781 "/>
<path style=" stroke:none;fill-rule:nonzero;fill:rgb(100%,100%,100%);fill-opacity:1;" d="M 16.8125 7.4375 C 16.683594 7.4375 16.5625 7.363281 16.503906 7.25 C 16.441406 7.132812 16.449219 6.992188 16.527344 6.886719 L 17.261719 5.824219 L 16.519531 5.824219 C 16.390625 5.824219 16.269531 5.753906 16.210938 5.636719 C 16.148438 5.519531 16.15625 5.382812 16.230469 5.273438 L 17.347656 3.660156 C 17.460938 3.503906 17.679688 3.460938 17.835938 3.574219 C 17.996094 3.683594 18.035156 3.902344 17.925781 4.0625 L 17.191406 5.121094 L 17.929688 5.121094 C 18.0625 5.121094 18.183594 5.195312 18.242188 5.3125 C 18.304688 5.425781 18.292969 5.566406 18.21875 5.675781 L 17.101562 7.285156 C 17.039062 7.382812 16.929688 7.4375 16.8125 7.4375 Z M 16.8125 7.4375 "/>
<path style=" stroke:none;fill-rule:nonzero;fill:rgb(100%,88.235294%,46.666667%);fill-opacity:1;" d="M 10.839844 19.769531 L 10.839844 18.328125 C 10.839844 17.808594 11.015625 17.332031 11.308594 16.953125 C 12.234375 17.230469 12.902344 18.089844 12.902344 19.101562 L 12.902344 19.769531 Z M 10.839844 19.769531 "/>
</g>
</svg>
