<?xml version="1.0" encoding="UTF-8"?>
<svg xmlns="http://www.w3.org/2000/svg" xmlns:xlink="http://www.w3.org/1999/xlink" width="64px" height="64px" viewBox="0 0 64 64" version="1.1">
<g id="surface1">
<path style=" stroke:none;fill-rule:nonzero;fill:rgb(65.098039%,90.588235%,94.117647%);fill-opacity:1;" d="M 35.332031 49.871094 C 33.355469 49.871094 31.746094 48.261719 31.746094 46.285156 L 31.746094 36.09375 C 31.746094 33.558594 33.105469 31.183594 35.292969 29.898438 L 35.324219 29.882812 L 42.117188 17.429688 C 42.9375 15.933594 44.507812 15 46.210938 15 L 56.5 15 C 50.914062 7.5625 42.019531 2.75 32 2.75 C 15.085938 2.75 1.375 16.460938 1.375 33.375 C 1.375 50.289062 15.085938 64 32 64 C 42.839844 64 52.363281 58.367188 57.808594 49.871094 Z M 35.332031 49.871094 "/>
<path style=" stroke:none;fill-rule:nonzero;fill:rgb(65.490196%,60.784314%,65.490196%);fill-opacity:1;" d="M 43.226562 2.007812 L 41.914062 0.285156 C 41.671875 -0.03125 41.21875 -0.09375 40.902344 0.148438 L 40.195312 0.6875 C 40.3125 0.753906 40.414062 0.84375 40.496094 0.949219 L 42.246094 3.246094 C 42.3125 3.335938 42.367188 3.4375 42.402344 3.546875 L 43.089844 3.019531 C 43.40625 2.777344 43.46875 2.324219 43.226562 2.007812 Z M 43.226562 2.007812 "/>
<path style=" stroke:none;fill-rule:nonzero;fill:rgb(56.862745%,50.980392%,56.862745%);fill-opacity:1;" d="M 40.496094 0.949219 L 41.144531 1.804688 L 41.945312 1.191406 C 42.105469 1.070312 42.304688 1.023438 42.5 1.054688 L 41.914062 0.285156 C 41.671875 -0.03125 41.21875 -0.09375 40.902344 0.148438 L 40.195312 0.6875 C 40.3125 0.753906 40.414062 0.84375 40.496094 0.949219 Z M 40.496094 0.949219 "/>
<path style=" stroke:none;fill-rule:nonzero;fill:rgb(40.784314%,36.862745%,40.784314%);fill-opacity:1;" d="M 36.1875 23.144531 C 36.691406 23.144531 37.167969 23.253906 37.601562 23.449219 L 37.601562 15.738281 C 37.542969 15.75 37.484375 15.757812 37.425781 15.757812 L 35.808594 15.757812 C 35.75 15.757812 35.691406 15.75 35.636719 15.738281 L 35.636719 23.144531 Z M 31.746094 42.933594 C 31.097656 42.484375 30.667969 41.734375 30.667969 40.886719 L 30.667969 29.078125 C 30.027344 28.449219 29.625 27.570312 29.625 26.601562 C 29.625 25.636719 30.027344 24.757812 30.667969 24.128906 L 30.667969 6.929688 C 30.667969 4.636719 28.921875 2.742188 26.6875 2.507812 L 26.6875 4.492188 C 27.835938 4.710938 28.707031 5.722656 28.707031 6.929688 L 28.707031 40.886719 C 28.707031 42.847656 29.980469 44.515625 31.746094 45.105469 Z M 31.746094 42.933594 "/>
<path style=" stroke:none;fill-rule:nonzero;fill:rgb(65.490196%,60.784314%,65.490196%);fill-opacity:1;" d="M 38.0625 13.449219 L 35.175781 13.449219 C 35.078125 13.449219 34.980469 13.433594 34.886719 13.40625 L 34.886719 14.957031 C 34.886719 15.46875 35.300781 15.882812 35.808594 15.882812 L 37.425781 15.882812 C 37.9375 15.882812 38.351562 15.46875 38.351562 14.957031 L 38.351562 13.40625 C 38.257812 13.433594 38.160156 13.449219 38.0625 13.449219 Z M 38.0625 13.449219 "/>
<path style=" stroke:none;fill-rule:nonzero;fill:rgb(56.862745%,50.980392%,56.862745%);fill-opacity:1;" d="M 36.535156 14.957031 L 36.535156 13.449219 L 35.175781 13.449219 C 35.078125 13.449219 34.980469 13.433594 34.886719 13.40625 L 34.886719 14.957031 C 34.886719 15.46875 35.300781 15.882812 35.808594 15.882812 L 37.425781 15.882812 C 37.433594 15.882812 37.4375 15.882812 37.441406 15.882812 C 36.9375 15.875 36.535156 15.460938 36.535156 14.957031 Z M 36.535156 14.957031 "/>
<path style=" stroke:none;fill-rule:nonzero;fill:rgb(18.039216%,81.960784%,88.627451%);fill-opacity:1;" d="M 38.0625 13.574219 L 35.175781 13.574219 C 34.535156 13.574219 34.019531 13.054688 34.019531 12.417969 L 34.019531 5.863281 C 34.019531 4.960938 34.441406 4.109375 35.15625 3.566406 L 38.976562 0.65625 C 39.484375 0.269531 40.207031 0.367188 40.59375 0.875 L 42.34375 3.171875 C 42.730469 3.679688 42.632812 4.402344 42.125 4.789062 L 39.671875 6.660156 C 39.386719 6.878906 39.214844 7.21875 39.214844 7.578125 L 39.214844 12.417969 C 39.214844 13.054688 38.699219 13.574219 38.0625 13.574219 Z M 38.0625 13.574219 "/>
<path style=" stroke:none;fill-rule:nonzero;fill:rgb(0.784314%,78.039216%,86.666667%);fill-opacity:1;" d="M 35.925781 13.445312 L 35.925781 6.886719 C 35.925781 5.988281 36.347656 5.136719 37.0625 4.589844 L 40.882812 1.679688 C 40.949219 1.628906 41.027344 1.582031 41.105469 1.546875 L 40.59375 0.875 C 40.207031 0.367188 39.484375 0.269531 38.976562 0.65625 L 35.15625 3.566406 C 34.441406 4.109375 34.019531 4.960938 34.019531 5.863281 L 34.019531 12.417969 C 34.019531 13.054688 34.535156 13.574219 35.175781 13.574219 L 35.933594 13.574219 C 35.925781 13.53125 35.925781 13.488281 35.925781 13.445312 Z M 35.925781 13.445312 "/>
<path style=" stroke:none;fill-rule:nonzero;fill:rgb(56.862745%,50.980392%,56.862745%);fill-opacity:1;" d="M 26.8125 46.75 L 26.8125 1.25 C 26.8125 0.558594 26.253906 0 25.5625 0 L 7.3125 0 C 6.621094 0 6.0625 0.558594 6.0625 1.25 L 6.0625 46.75 Z M 26.8125 46.75 "/>
<path style=" stroke:none;fill-rule:nonzero;fill:rgb(47.843137%,42.745098%,47.45098%);fill-opacity:1;" d="M 10.230469 43.125 C 9.882812 43.125 9.605469 42.84375 9.605469 42.5 L 9.605469 39.5 C 9.605469 39.15625 9.882812 38.875 10.230469 38.875 L 11.125 38.875 L 11.125 13.375 L 10.230469 13.375 C 9.882812 13.375 9.605469 13.09375 9.605469 12.75 L 9.605469 3.75 C 9.605469 3.40625 9.882812 3.125 10.230469 3.125 L 11.125 3.125 L 11.125 1.25 C 11.125 0.558594 11.683594 0 12.375 0 L 7.3125 0 C 6.621094 0 6.0625 0.558594 6.0625 1.25 L 6.0625 46.75 L 11.125 46.75 L 11.125 43.125 Z M 10.230469 43.125 "/>
<path style=" stroke:none;fill-rule:nonzero;fill:rgb(88.627451%,87.058824%,88.627451%);fill-opacity:1;" d="M 35.332031 49.871094 C 33.46875 49.871094 31.933594 48.445312 31.761719 46.625 L 4.382812 46.625 C 9.324219 56.902344 19.832031 64 32 64 C 42.839844 64 52.363281 58.367188 57.804688 49.871094 Z M 35.332031 49.871094 "/>
<path style=" stroke:none;fill-rule:nonzero;fill:rgb(79.607843%,76.862745%,80%);fill-opacity:1;" d="M 32.25 54.125 C 31.285156 54.125 30.5 54.910156 30.5 55.875 C 30.5 56.839844 31.285156 57.625 32.25 57.625 L 50.703125 57.625 C 52.070312 56.566406 53.347656 55.398438 54.523438 54.125 Z M 32.25 54.125 "/>
<path style=" stroke:none;fill-rule:nonzero;fill:rgb(99.607843%,83.137255%,0.784314%);fill-opacity:1;" d="M 9.605469 12.75 L 9.605469 3.75 C 9.605469 3.40625 9.882812 3.125 10.230469 3.125 L 22.644531 3.125 C 22.992188 3.125 23.269531 3.40625 23.269531 3.75 L 23.269531 12.75 C 23.269531 13.09375 22.992188 13.375 22.644531 13.375 L 10.230469 13.375 C 9.882812 13.375 9.605469 13.09375 9.605469 12.75 Z M 9.605469 12.75 "/>
<path style=" stroke:none;fill-rule:nonzero;fill:rgb(40.784314%,36.862745%,40.784314%);fill-opacity:1;" d="M 22.644531 38.875 L 10.230469 38.875 C 9.882812 38.875 9.605469 39.15625 9.605469 39.5 L 9.605469 42.5 C 9.605469 42.84375 9.882812 43.125 10.230469 43.125 L 22.644531 43.125 C 22.992188 43.125 23.269531 42.84375 23.269531 42.5 L 23.269531 39.5 C 23.269531 39.15625 22.992188 38.875 22.644531 38.875 Z M 22.644531 38.875 "/>
<path style=" stroke:none;fill-rule:nonzero;fill:rgb(33.333333%,30.588235%,33.72549%);fill-opacity:1;" d="M 13.832031 42.5 L 13.832031 39.5 C 13.832031 39.15625 14.113281 38.875 14.457031 38.875 L 10.230469 38.875 C 9.882812 38.875 9.605469 39.15625 9.605469 39.5 L 9.605469 42.5 C 9.605469 42.84375 9.882812 43.125 10.230469 43.125 L 14.457031 43.125 C 14.113281 43.125 13.832031 42.84375 13.832031 42.5 Z M 13.832031 42.5 "/>
<path style=" stroke:none;fill-rule:nonzero;fill:rgb(98.039216%,77.647059%,0%);fill-opacity:1;" d="M 13.832031 12.75 L 13.832031 3.75 C 13.832031 3.40625 14.113281 3.125 14.457031 3.125 L 10.230469 3.125 C 9.882812 3.125 9.605469 3.40625 9.605469 3.75 L 9.605469 12.75 C 9.605469 13.09375 9.882812 13.375 10.230469 13.375 L 14.457031 13.375 C 14.113281 13.375 13.832031 13.09375 13.832031 12.75 Z M 13.832031 12.75 "/>
<path style=" stroke:none;fill-rule:nonzero;fill:rgb(99.607843%,83.137255%,0.784314%);fill-opacity:1;" d="M 21.128906 24.863281 L 18.65625 24.863281 C 18.546875 24.863281 18.445312 24.8125 18.378906 24.726562 C 18.3125 24.636719 18.292969 24.523438 18.324219 24.417969 L 20.304688 17.445312 C 20.40625 17.085938 19.949219 16.839844 19.707031 17.125 L 11.484375 26.726562 C 11.289062 26.953125 11.449219 27.300781 11.746094 27.300781 L 14.21875 27.300781 C 14.328125 27.300781 14.429688 27.351562 14.496094 27.4375 C 14.5625 27.527344 14.582031 27.640625 14.554688 27.746094 L 12.546875 34.679688 C 12.445312 35.039062 12.902344 35.285156 13.144531 35.003906 L 21.390625 25.4375 C 21.585938 25.210938 21.425781 24.863281 21.128906 24.863281 Z M 21.128906 24.863281 "/>
<path style=" stroke:none;fill-rule:nonzero;fill:rgb(98.039216%,77.647059%,0%);fill-opacity:1;" d="M 13.335938 26.726562 L 19.820312 19.15625 L 20.304688 17.445312 C 20.40625 17.085938 19.949219 16.839844 19.707031 17.125 L 11.484375 26.726562 C 11.289062 26.953125 11.449219 27.300781 11.746094 27.300781 L 13.601562 27.300781 C 13.304688 27.300781 13.144531 26.953125 13.335938 26.726562 Z M 16.40625 27.746094 C 16.4375 27.640625 16.414062 27.527344 16.351562 27.4375 C 16.285156 27.351562 16.179688 27.300781 16.070312 27.300781 L 14.21875 27.300781 C 14.328125 27.300781 14.429688 27.351562 14.496094 27.4375 C 14.5625 27.527344 14.582031 27.640625 14.554688 27.746094 L 12.546875 34.679688 C 12.445312 35.039062 12.902344 35.285156 13.144531 35.003906 L 14.894531 32.976562 Z M 16.40625 27.746094 "/>
<path style=" stroke:none;fill-rule:nonzero;fill:rgb(99.215686%,32.941176%,14.901961%);fill-opacity:1;" d="M 34.847656 30.1875 C 34.992188 30.085938 35.140625 29.988281 35.292969 29.898438 L 35.324219 29.882812 L 38.570312 23.933594 C 37.933594 23.367188 37.097656 23.019531 36.1875 23.019531 L 33.082031 23.019531 C 31.113281 23.019531 29.5 24.632812 29.5 26.601562 C 29.5 28.574219 31.113281 30.1875 33.082031 30.1875 Z M 34.847656 30.1875 "/>
<path style=" stroke:none;fill-rule:nonzero;fill:rgb(93.72549%,26.666667%,14.117647%);fill-opacity:1;" d="M 32.679688 26.601562 C 32.679688 24.644531 34.273438 23.042969 36.226562 23.023438 C 36.214844 23.023438 36.199219 23.019531 36.1875 23.019531 L 33.082031 23.019531 C 31.113281 23.019531 29.5 24.632812 29.5 26.601562 C 29.5 28.574219 31.113281 30.1875 33.082031 30.1875 L 34.847656 30.1875 C 34.941406 30.121094 35.035156 30.058594 35.132812 30 C 33.710938 29.523438 32.679688 28.179688 32.679688 26.601562 Z M 32.679688 26.601562 "/>
<path style=" stroke:none;fill-rule:nonzero;fill:rgb(40.784314%,36.862745%,40.784314%);fill-opacity:1;" d="M 35.332031 49.871094 C 34.351562 49.871094 33.460938 49.472656 32.8125 48.832031 L 32.8125 54.472656 C 32.8125 55.519531 33.660156 56.367188 34.707031 56.367188 L 38.460938 56.367188 C 39.507812 56.367188 40.355469 55.519531 40.355469 54.472656 L 40.355469 49.871094 Z M 35.332031 49.871094 "/>
<path style=" stroke:none;fill-rule:nonzero;fill:rgb(33.333333%,30.588235%,33.72549%);fill-opacity:1;" d="M 36.363281 54.472656 L 36.363281 49.871094 L 35.332031 49.871094 C 34.351562 49.871094 33.460938 49.472656 32.8125 48.832031 L 32.8125 54.472656 C 32.8125 55.519531 33.660156 56.367188 34.707031 56.367188 L 38.257812 56.367188 C 37.210938 56.367188 36.363281 55.519531 36.363281 54.472656 Z M 36.363281 54.472656 "/>
<path style=" stroke:none;fill-rule:nonzero;fill:rgb(56.862745%,50.980392%,56.862745%);fill-opacity:1;" d="M 54.039062 45.546875 C 53.617188 45.546875 53.269531 45.203125 53.269531 44.777344 L 53.269531 41.25 L 46.355469 41.25 C 45.582031 41.25 44.886719 41.710938 44.589844 42.425781 L 43.246094 45.640625 C 43.042969 46.125 42.566406 46.441406 42.039062 46.441406 L 35.332031 46.441406 C 33.355469 46.441406 31.746094 44.832031 31.746094 42.855469 L 31.621094 42.855469 L 31.621094 46.285156 C 31.621094 48.335938 33.285156 49.996094 35.332031 49.996094 L 57.726562 49.996094 C 58.640625 48.582031 59.4375 47.09375 60.109375 45.546875 Z M 54.039062 45.546875 "/>
<path style=" stroke:none;fill-rule:nonzero;fill:rgb(47.843137%,42.745098%,47.45098%);fill-opacity:1;" d="M 37.015625 46.566406 L 35.332031 46.566406 C 33.285156 46.566406 31.621094 44.90625 31.621094 42.855469 L 31.621094 46.285156 C 31.621094 48.335938 33.285156 49.996094 35.332031 49.996094 L 40.714844 49.996094 C 38.757812 49.996094 37.160156 48.484375 37.015625 46.566406 Z M 37.015625 46.566406 "/>
<path style=" stroke:none;fill-rule:nonzero;fill:rgb(99.215686%,32.941176%,14.901961%);fill-opacity:1;" d="M 61.625 29.917969 L 62.414062 29.792969 C 61.765625 24.226562 59.628906 19.117188 56.40625 14.875 L 46.210938 14.875 C 44.460938 14.875 42.847656 15.832031 42.007812 17.371094 L 35.230469 29.792969 L 36.070312 29.917969 Z M 61.625 29.917969 "/>
<path style=" stroke:none;fill-rule:nonzero;fill:rgb(93.72549%,26.666667%,14.117647%);fill-opacity:1;" d="M 41.039062 26.335938 C 40.359375 26.335938 39.929688 25.605469 40.253906 25.011719 L 44.121094 17.925781 C 44.433594 17.351562 45.035156 16.996094 45.691406 16.996094 L 47.652344 16.996094 C 48.535156 15.679688 50.019531 14.875 51.625 14.875 L 46.210938 14.875 C 44.460938 14.875 42.847656 15.832031 42.007812 17.371094 L 35.230469 29.792969 L 40.640625 29.792969 L 42.527344 26.335938 Z M 41.039062 26.335938 "/>
<path style=" stroke:none;fill-rule:nonzero;fill:rgb(40.784314%,36.862745%,40.784314%);fill-opacity:1;" d="M 57.878906 16.996094 L 45.691406 16.996094 C 45.035156 16.996094 44.433594 17.351562 44.121094 17.925781 L 40.253906 25.011719 C 39.929688 25.605469 40.359375 26.335938 41.039062 26.335938 L 61.808594 26.335938 C 61.03125 23.023438 59.703125 19.867188 57.878906 16.996094 Z M 57.878906 16.996094 "/>
<path style=" stroke:none;fill-rule:nonzero;fill:rgb(33.333333%,30.588235%,33.72549%);fill-opacity:1;" d="M 61.253906 24.28125 L 45.402344 24.28125 C 44.722656 24.28125 44.289062 23.554688 44.617188 22.957031 L 47.871094 16.996094 L 45.691406 16.996094 C 45.035156 16.996094 44.433594 17.351562 44.121094 17.925781 L 40.253906 25.011719 C 39.929688 25.605469 40.359375 26.335938 41.039062 26.335938 L 61.808594 26.335938 C 61.648438 25.644531 61.460938 24.960938 61.253906 24.28125 Z M 61.253906 24.28125 "/>
<path style=" stroke:none;fill-rule:nonzero;fill:rgb(99.607843%,49.019608%,26.27451%);fill-opacity:1;" d="M 44.335938 38.382812 C 44.074219 38.382812 43.839844 38.257812 43.695312 38.042969 C 43.550781 37.824219 43.523438 37.558594 43.625 37.316406 L 44.820312 34.464844 C 45.078125 33.84375 45.683594 33.441406 46.355469 33.441406 L 62.625 33.441406 C 62.625 33.417969 62.625 33.398438 62.625 33.375 C 62.625 32.164062 62.550781 30.96875 62.414062 29.792969 L 35.230469 29.792969 C 32.996094 31.105469 31.621094 33.503906 31.621094 36.09375 L 31.621094 42.855469 C 31.621094 44.90625 33.285156 46.566406 35.332031 46.566406 L 42.039062 46.566406 C 42.617188 46.566406 43.136719 46.21875 43.359375 45.6875 L 44.703125 42.472656 C 44.980469 41.808594 45.632812 41.375 46.355469 41.375 L 53.269531 41.375 L 53.269531 40.835938 C 53.269531 40.414062 53.617188 40.066406 54.039062 40.066406 L 61.886719 40.066406 C 62.011719 39.507812 62.121094 38.949219 62.214844 38.382812 Z M 44.335938 38.382812 "/>
<path style=" stroke:none;fill-rule:nonzero;fill:rgb(99.215686%,32.941176%,14.901961%);fill-opacity:1;" d="M 37.003906 42.855469 L 37.003906 36.09375 C 37.003906 33.503906 38.375 31.105469 40.609375 29.792969 L 35.230469 29.792969 C 32.996094 31.105469 31.621094 33.503906 31.621094 36.09375 L 31.621094 42.855469 C 31.621094 44.90625 33.285156 46.566406 35.332031 46.566406 L 40.714844 46.566406 C 38.664062 46.566406 37.003906 44.90625 37.003906 42.855469 Z M 37.003906 42.855469 "/>
<path style=" stroke:none;fill-rule:nonzero;fill:rgb(100%,69.019608%,61.960784%);fill-opacity:1;" d="M 44.703125 42.472656 C 44.894531 42.015625 45.269531 41.667969 45.71875 41.496094 L 34.039062 41.496094 C 33.691406 41.496094 33.414062 41.777344 33.414062 42.121094 L 33.414062 42.855469 C 33.414062 43.917969 34.273438 44.777344 35.332031 44.777344 L 43.742188 44.777344 Z M 44.703125 42.472656 "/>
<path style=" stroke:none;fill-rule:nonzero;fill:rgb(100%,100%,100%);fill-opacity:1;" d="M 32.515625 36.09375 L 32.515625 37.613281 C 32.515625 38.109375 32.917969 38.507812 33.414062 38.507812 L 39.625 38.507812 C 40.003906 38.507812 40.339844 38.273438 40.46875 37.921875 L 41.4375 35.25 C 41.582031 34.855469 41.429688 34.410156 41.074219 34.1875 L 35.988281 31.003906 C 35.667969 30.804688 35.253906 30.828125 34.953125 31.0625 C 33.433594 32.269531 32.515625 34.128906 32.515625 36.09375 Z M 32.515625 36.09375 "/>
<path style=" stroke:none;fill-rule:nonzero;fill:rgb(95.294118%,94.117647%,95.294118%);fill-opacity:1;" d="M 37.003906 36.09375 C 37.003906 34.734375 37.382812 33.429688 38.066406 32.304688 L 35.988281 31.003906 C 35.667969 30.804688 35.253906 30.828125 34.953125 31.0625 C 33.433594 32.269531 32.515625 34.128906 32.515625 36.09375 L 32.515625 37.613281 C 32.515625 38.109375 32.917969 38.507812 33.414062 38.507812 L 37.003906 38.507812 Z M 37.003906 36.09375 "/>
<path style=" stroke:none;fill-rule:nonzero;fill:rgb(99.607843%,83.137255%,0.784314%);fill-opacity:1;" d="M 54.039062 39.941406 C 53.546875 39.941406 53.144531 40.34375 53.144531 40.835938 L 53.144531 44.777344 C 53.144531 45.269531 53.546875 45.671875 54.039062 45.671875 L 60.054688 45.671875 C 60.863281 43.828125 61.488281 41.910156 61.917969 39.941406 Z M 54.039062 39.941406 "/>
<path style=" stroke:none;fill-rule:nonzero;fill:rgb(98.039216%,77.647059%,0%);fill-opacity:1;" d="M 57.15625 44.777344 L 57.15625 40.835938 C 57.15625 40.34375 57.558594 39.941406 58.050781 39.941406 L 54.039062 39.941406 C 53.546875 39.941406 53.144531 40.34375 53.144531 40.835938 L 53.144531 44.777344 C 53.144531 45.269531 53.546875 45.671875 54.039062 45.671875 L 58.050781 45.671875 C 57.558594 45.671875 57.15625 45.269531 57.15625 44.777344 Z M 57.15625 44.777344 "/>
<path style=" stroke:none;fill-rule:nonzero;fill:rgb(95.294118%,94.117647%,95.294118%);fill-opacity:1;" d="M 62.625 33.375 C 62.625 33.355469 62.625 33.335938 62.625 33.316406 L 46.355469 33.316406 C 45.632812 33.316406 44.980469 33.75 44.703125 34.417969 L 43.511719 37.269531 C 43.265625 37.859375 43.699219 38.507812 44.335938 38.507812 L 62.195312 38.507812 C 62.480469 36.8125 62.625 35.09375 62.625 33.375 Z M 62.625 33.375 "/>
<path style=" stroke:none;fill-rule:nonzero;fill:rgb(88.627451%,87.058824%,88.627451%);fill-opacity:1;" d="M 48.882812 37.269531 L 50.078125 34.417969 C 50.355469 33.75 51.007812 33.316406 51.730469 33.316406 L 46.355469 33.316406 C 45.632812 33.316406 44.980469 33.75 44.703125 34.417969 L 43.511719 37.269531 C 43.265625 37.859375 43.695312 38.507812 44.335938 38.507812 L 49.710938 38.507812 C 49.070312 38.507812 48.636719 37.859375 48.882812 37.269531 Z M 48.882812 37.269531 "/>
<path style=" stroke:none;fill-rule:nonzero;fill:rgb(100%,100%,100%);fill-opacity:1;" d="M 20.25 7.007812 L 19.875 7.007812 L 19.875 6.625 C 19.875 6.417969 19.707031 6.25 19.5 6.25 L 12.75 6.25 C 12.542969 6.25 12.375 6.417969 12.375 6.625 L 12.375 9.375 C 12.375 9.582031 12.542969 9.75 12.75 9.75 L 19.5 9.75 C 19.707031 9.75 19.875 9.582031 19.875 9.375 L 19.875 8.992188 L 20.25 8.992188 C 20.457031 8.992188 20.625 8.824219 20.625 8.617188 L 20.625 7.382812 C 20.625 7.175781 20.457031 7.007812 20.25 7.007812 Z M 20.25 7.007812 "/>
<path style=" stroke:none;fill-rule:nonzero;fill:rgb(95.294118%,94.117647%,95.294118%);fill-opacity:1;" d="M 12.75 6.25 C 12.542969 6.25 12.375 6.417969 12.375 6.625 L 12.375 9.375 C 12.375 9.582031 12.542969 9.75 12.75 9.75 L 13.832031 9.75 L 13.832031 6.25 Z M 12.75 6.25 "/>
<path style=" stroke:none;fill-rule:nonzero;fill:rgb(18.039216%,81.960784%,88.627451%);fill-opacity:1;" d="M 13.25 8.5 L 13.25 7.5 C 13.25 7.292969 13.417969 7.125 13.625 7.125 L 18.625 7.125 C 18.832031 7.125 19 7.292969 19 7.5 L 19 8.5 C 19 8.707031 18.832031 8.875 18.625 8.875 L 13.625 8.875 C 13.417969 8.875 13.25 8.707031 13.25 8.5 Z M 13.25 8.5 "/>
<path style=" stroke:none;fill-rule:nonzero;fill:rgb(0.784314%,78.039216%,86.666667%);fill-opacity:1;" d="M 15.25 8.5 L 15.25 7.5 C 15.25 7.292969 15.417969 7.125 15.625 7.125 L 13.625 7.125 C 13.417969 7.125 13.25 7.292969 13.25 7.5 L 13.25 8.5 C 13.25 8.707031 13.417969 8.875 13.625 8.875 L 15.625 8.875 C 15.417969 8.875 15.25 8.707031 15.25 8.5 Z M 15.25 8.5 "/>
</g>
</svg>
