<?xml version="1.0" encoding="UTF-8"?>
<svg xmlns="http://www.w3.org/2000/svg" xmlns:xlink="http://www.w3.org/1999/xlink" width="32px" height="32px" viewBox="0 0 32 32" version="1.1">
<g id="surface1">
<path style=" stroke:none;fill-rule:nonzero;fill:rgb(88.627451%,87.058824%,88.627451%);fill-opacity:1;" d="M 15.066406 30.679688 L 15.066406 30.242188 L 15.003906 30.054688 L 12.613281 30.054688 L 12.613281 30.886719 L 12.675781 30.992188 L 15.316406 30.992188 L 15.296875 30.925781 C 15.167969 30.914062 15.066406 30.808594 15.066406 30.679688 Z M 28.40625 30.679688 L 28.40625 30.242188 L 28.34375 30.054688 L 17.59375 30.054688 L 17.53125 30.242188 L 17.53125 30.679688 C 17.53125 30.808594 17.429688 30.914062 17.304688 30.925781 L 17.28125 30.992188 L 28.65625 30.992188 L 28.632812 30.925781 C 28.503906 30.914062 28.40625 30.808594 28.40625 30.679688 Z M 28.40625 30.679688 "/>
<path style=" stroke:none;fill-rule:nonzero;fill:rgb(0.784314%,78.039216%,86.666667%);fill-opacity:1;" d="M 6.339844 17.3125 C 7.746094 17.3125 8.894531 16.164062 8.894531 14.757812 L 8.894531 13.925781 L 3.78125 13.925781 L 3.78125 14.757812 C 3.78125 16.164062 4.933594 17.3125 6.339844 17.3125 Z M 6.339844 17.3125 "/>
<path style=" stroke:none;fill-rule:nonzero;fill:rgb(2.745098%,69.803922%,80.392157%);fill-opacity:1;" d="M 5.339844 14.757812 L 5.339844 13.925781 L 3.78125 13.925781 L 3.78125 14.757812 C 3.78125 16.164062 4.933594 17.3125 6.339844 17.3125 C 6.578125 17.3125 6.8125 17.277344 7.042969 17.210938 C 6.050781 16.839844 5.339844 15.878906 5.339844 14.757812 Z M 5.339844 14.757812 "/>
<path style=" stroke:none;fill-rule:nonzero;fill:rgb(95.294118%,94.117647%,95.294118%);fill-opacity:1;" d="M 11.726562 28.433594 L 11.726562 10.820312 C 11.726562 7.84375 9.3125 5.429688 6.339844 5.429688 C 3.363281 5.429688 0.949219 7.84375 0.949219 10.820312 L 0.949219 28.433594 Z M 3.78125 11.027344 C 3.78125 9.621094 4.933594 8.46875 6.339844 8.46875 C 7.746094 8.46875 8.894531 9.621094 8.894531 11.027344 L 8.894531 14.757812 C 8.894531 16.164062 7.746094 17.3125 6.339844 17.3125 C 4.933594 17.3125 3.78125 16.164062 3.78125 14.757812 Z M 3.78125 11.027344 "/>
<path style=" stroke:none;fill-rule:nonzero;fill:rgb(88.627451%,87.058824%,88.627451%);fill-opacity:1;" d="M 7.25 5.507812 C 6.949219 5.457031 6.644531 5.429688 6.339844 5.429688 C 3.363281 5.429688 0.949219 7.84375 0.949219 10.820312 L 0.949219 28.433594 L 2.777344 28.433594 L 2.777344 10.820312 C 2.777344 8.152344 4.710938 5.941406 7.25 5.507812 Z M 7.25 5.507812 "/>
<path style=" stroke:none;fill-rule:nonzero;fill:rgb(79.607843%,76.862745%,80%);fill-opacity:1;" d="M 6.339844 17.78125 C 4.671875 17.78125 3.3125 16.425781 3.3125 14.757812 L 3.3125 11.027344 C 3.3125 9.359375 4.671875 8 6.339844 8 C 8.007812 8 9.363281 9.359375 9.363281 11.027344 L 9.363281 14.757812 C 9.363281 16.425781 8.007812 17.78125 6.339844 17.78125 Z M 6.339844 8.9375 C 5.1875 8.9375 4.25 9.875 4.25 11.027344 L 4.25 14.757812 C 4.25 15.90625 5.1875 16.84375 6.339844 16.84375 C 7.488281 16.84375 8.425781 15.90625 8.425781 14.757812 L 8.425781 11.027344 C 8.425781 9.875 7.488281 8.9375 6.339844 8.9375 Z M 6.339844 8.9375 "/>
<path style=" stroke:none;fill-rule:nonzero;fill:rgb(100%,88.235294%,46.666667%);fill-opacity:1;" d="M 9.144531 22.140625 L 3.53125 22.140625 C 3.320312 22.140625 3.152344 21.96875 3.152344 21.761719 L 3.152344 19.636719 C 3.152344 19.425781 3.320312 19.253906 3.53125 19.253906 L 9.144531 19.253906 C 9.355469 19.253906 9.527344 19.425781 9.527344 19.636719 L 9.527344 21.761719 C 9.527344 21.96875 9.355469 22.140625 9.144531 22.140625 Z M 9.144531 22.140625 "/>
<path style=" stroke:none;fill-rule:nonzero;fill:rgb(100%,81.960784%,35.686275%);fill-opacity:1;" d="M 4.929688 21.761719 L 4.929688 19.636719 C 4.929688 19.425781 5.097656 19.253906 5.308594 19.253906 L 3.53125 19.253906 C 3.320312 19.253906 3.152344 19.425781 3.152344 19.636719 L 3.152344 21.761719 C 3.152344 21.96875 3.320312 22.140625 3.53125 22.140625 L 5.308594 22.140625 C 5.097656 22.140625 4.925781 21.96875 4.929688 21.761719 Z M 4.929688 21.761719 "/>
<path style=" stroke:none;fill-rule:nonzero;fill:rgb(0.784314%,78.039216%,86.666667%);fill-opacity:1;" d="M 12.675781 30.992188 L 0.34375 30.992188 C 0.15625 30.992188 0 30.835938 0 30.644531 L 0 28.710938 C 0 28.519531 0.15625 28.367188 0.34375 28.367188 L 12.332031 28.367188 C 12.523438 28.367188 12.675781 28.519531 12.675781 28.710938 Z M 12.675781 30.992188 "/>
<path style=" stroke:none;fill-rule:nonzero;fill:rgb(2.745098%,69.803922%,80.392157%);fill-opacity:1;" d="M 2.738281 30.644531 L 2.738281 28.710938 C 2.738281 28.519531 2.890625 28.367188 3.082031 28.367188 L 0.34375 28.367188 C 0.15625 28.367188 0 28.519531 0 28.710938 L 0 30.644531 C 0 30.835938 0.15625 30.992188 0.34375 30.992188 L 3.082031 30.992188 C 2.890625 30.992188 2.738281 30.835938 2.738281 30.644531 Z M 2.738281 30.644531 "/>
<path style=" stroke:none;fill-rule:nonzero;fill:rgb(0.784314%,78.039216%,86.666667%);fill-opacity:1;" d="M 5.507812 24.273438 L 3.4375 24.273438 C 3.179688 24.273438 2.96875 24.066406 2.96875 23.804688 C 2.96875 23.546875 3.179688 23.335938 3.4375 23.335938 L 5.507812 23.335938 C 5.769531 23.335938 5.976562 23.546875 5.976562 23.804688 C 5.976562 24.066406 5.769531 24.273438 5.507812 24.273438 Z M 9.238281 24.273438 L 9.101562 24.273438 C 8.84375 24.273438 8.632812 24.066406 8.632812 23.804688 C 8.632812 23.546875 8.84375 23.335938 9.101562 23.335938 L 9.238281 23.335938 C 9.5 23.335938 9.707031 23.546875 9.707031 23.804688 C 9.707031 24.066406 9.5 24.273438 9.238281 24.273438 Z M 7.703125 24.273438 L 7.566406 24.273438 C 7.304688 24.273438 7.097656 24.066406 7.097656 23.804688 C 7.097656 23.546875 7.304688 23.335938 7.566406 23.335938 L 7.703125 23.335938 C 7.960938 23.335938 8.171875 23.546875 8.171875 23.804688 C 8.171875 24.066406 7.960938 24.273438 7.703125 24.273438 Z M 7.703125 24.273438 "/>
<path style=" stroke:none;fill-rule:nonzero;fill:rgb(2.745098%,69.803922%,80.392157%);fill-opacity:1;" d="M 30.898438 19.753906 L 30.136719 19.753906 C 29.789062 19.753906 29.457031 19.871094 29.1875 20.089844 L 29.136719 20.152344 L 29.625 21.742188 L 29.65625 21.753906 C 29.789062 21.8125 29.914062 21.878906 30.035156 21.953125 L 30.898438 21.953125 C 31.507812 21.953125 32 21.460938 32 20.855469 C 32 20.246094 31.507812 19.753906 30.898438 19.753906 Z M 15.898438 21.953125 C 16.019531 21.878906 16.148438 21.8125 16.28125 21.753906 L 16.308594 21.742188 L 16.789062 20.179688 L 16.746094 20.089844 C 16.480469 19.871094 16.144531 19.753906 15.800781 19.753906 L 15.035156 19.753906 C 14.429688 19.753906 13.9375 20.246094 13.9375 20.855469 C 13.9375 21.460938 14.429688 21.953125 15.035156 21.953125 Z M 15.898438 21.953125 "/>
<path style=" stroke:none;fill-rule:nonzero;fill:rgb(0.392157%,50.980392%,98.823529%);fill-opacity:1;" d="M 26.5 17.105469 L 19.4375 17.105469 C 18.378906 17.105469 17.445312 17.792969 17.136719 18.804688 L 16.226562 21.765625 C 16.609375 21.589844 17.027344 21.5 17.453125 21.5 L 28.484375 21.5 C 28.90625 21.5 29.324219 21.589844 29.710938 21.765625 L 28.796875 18.804688 C 28.488281 17.792969 27.554688 17.105469 26.5 17.105469 Z M 26.5 17.105469 "/>
<path style=" stroke:none;fill-rule:nonzero;fill:rgb(0.392157%,44.705882%,98.431373%);fill-opacity:1;" d="M 19.226562 18.804688 C 19.539062 17.792969 20.472656 17.105469 21.527344 17.105469 L 19.4375 17.105469 C 18.378906 17.105469 17.445312 17.792969 17.136719 18.804688 L 16.226562 21.765625 C 16.609375 21.589844 17.027344 21.5 17.453125 21.5 L 18.402344 21.5 Z M 19.226562 18.804688 "/>
<path style=" stroke:none;fill-rule:nonzero;fill:rgb(0.784314%,78.039216%,86.666667%);fill-opacity:1;" d="M 16.773438 21.578125 L 17.585938 18.941406 C 17.835938 18.125 18.578125 17.574219 19.4375 17.574219 L 26.5 17.574219 C 27.355469 17.574219 28.097656 18.125 28.351562 18.941406 L 29.160156 21.578125 C 29.554688 21.671875 29.925781 21.847656 30.25 22.089844 L 30.296875 22.078125 L 29.246094 18.667969 C 28.875 17.453125 27.769531 16.636719 26.5 16.636719 L 19.4375 16.636719 C 18.164062 16.636719 17.0625 17.453125 16.6875 18.667969 L 15.640625 22.078125 L 15.6875 22.09375 C 16.007812 21.847656 16.378906 21.671875 16.773438 21.578125 Z M 16.773438 21.578125 "/>
<path style=" stroke:none;fill-rule:nonzero;fill:rgb(40.784314%,36.862745%,40.784314%);fill-opacity:1;" d="M 15.425781 28.304688 C 15.273438 28.304688 15.128906 28.265625 15.003906 28.199219 L 15.003906 30.679688 C 15.003906 30.851562 15.144531 30.992188 15.316406 30.992188 L 17.28125 30.992188 C 17.453125 30.992188 17.59375 30.851562 17.59375 30.679688 L 17.59375 28.304688 Z M 15.425781 28.304688 "/>
<path style=" stroke:none;fill-rule:nonzero;fill:rgb(33.333333%,30.588235%,33.72549%);fill-opacity:1;" d="M 15.425781 28.304688 C 15.273438 28.304688 15.128906 28.265625 15.003906 28.199219 L 15.003906 30.679688 C 15.003906 30.851562 15.144531 30.992188 15.316406 30.992188 L 16.257812 30.992188 L 16.257812 28.304688 Z M 15.425781 28.304688 "/>
<path style=" stroke:none;fill-rule:nonzero;fill:rgb(40.784314%,36.862745%,40.784314%);fill-opacity:1;" d="M 30.511719 28.304688 L 28.34375 28.304688 L 28.34375 30.679688 C 28.34375 30.851562 28.480469 30.992188 28.65625 30.992188 L 30.621094 30.992188 C 30.792969 30.992188 30.933594 30.851562 30.933594 30.679688 L 30.933594 28.199219 C 30.800781 28.269531 30.65625 28.304688 30.511719 28.304688 Z M 30.511719 28.304688 "/>
<path style=" stroke:none;fill-rule:nonzero;fill:rgb(33.333333%,30.588235%,33.72549%);fill-opacity:1;" d="M 28.34375 28.304688 L 28.34375 30.679688 C 28.34375 30.851562 28.480469 30.992188 28.65625 30.992188 L 29.519531 30.992188 L 29.519531 28.304688 Z M 28.34375 28.304688 "/>
<path style=" stroke:none;fill-rule:nonzero;fill:rgb(0.784314%,78.039216%,86.666667%);fill-opacity:1;" d="M 28.792969 26.296875 L 28.792969 25.472656 C 28.792969 24.191406 29.601562 23.078125 30.808594 22.683594 L 30.855469 22.601562 C 30.304688 21.894531 29.449219 21.4375 28.484375 21.4375 L 17.453125 21.4375 C 16.488281 21.4375 15.628906 21.894531 15.082031 22.601562 L 15.125 22.683594 C 16.335938 23.078125 17.144531 24.191406 17.144531 25.472656 L 17.144531 26.296875 L 17.136719 26.296875 L 17.207031 26.417969 L 18.171875 26.417969 C 18.550781 26.417969 18.90625 26.238281 19.128906 25.933594 C 19.289062 25.710938 19.550781 25.578125 19.824219 25.578125 L 26.105469 25.578125 C 26.382812 25.578125 26.644531 25.710938 26.804688 25.933594 C 27.027344 26.238281 27.382812 26.417969 27.761719 26.417969 L 28.730469 26.417969 L 28.800781 26.296875 Z M 28.792969 26.296875 "/>
<path style=" stroke:none;fill-rule:nonzero;fill:rgb(2.745098%,69.803922%,80.392157%);fill-opacity:1;" d="M 17.453125 21.4375 C 16.488281 21.4375 15.628906 21.894531 15.078125 22.601562 C 16.148438 22.925781 16.960938 23.828125 17.160156 24.945312 L 17.160156 24.433594 C 17.160156 22.78125 18.5 21.4375 20.15625 21.4375 Z M 17.453125 21.4375 "/>
<path style=" stroke:none;fill-rule:nonzero;fill:rgb(100%,94.117647%,67.843137%);fill-opacity:1;" d="M 14.453125 26.359375 L 14.453125 24.433594 C 14.453125 23.746094 14.6875 23.109375 15.078125 22.601562 C 16.308594 22.976562 17.207031 24.117188 17.207031 25.472656 L 17.207031 26.359375 Z M 14.453125 26.359375 "/>
<path style=" stroke:none;fill-rule:nonzero;fill:rgb(100%,88.235294%,46.666667%);fill-opacity:1;" d="M 31.480469 26.359375 L 31.480469 24.433594 C 31.480469 23.746094 31.25 23.109375 30.855469 22.601562 C 29.625 22.976562 28.730469 24.117188 28.730469 25.472656 L 28.730469 26.359375 Z M 31.480469 26.359375 "/>
<path style=" stroke:none;fill-rule:nonzero;fill:rgb(100%,94.117647%,67.843137%);fill-opacity:1;" d="M 14.453125 26.359375 L 14.453125 24.433594 C 14.453125 23.746094 14.6875 23.109375 15.078125 22.601562 C 16.308594 22.976562 17.207031 24.117188 17.207031 25.472656 L 17.207031 26.359375 Z M 14.453125 26.359375 "/>
<path style=" stroke:none;fill-rule:nonzero;fill:rgb(88.627451%,87.058824%,88.627451%);fill-opacity:1;" d="M 27.757812 26.359375 C 27.402344 26.359375 27.066406 26.1875 26.855469 25.898438 C 26.679688 25.65625 26.402344 25.515625 26.105469 25.515625 L 19.824219 25.515625 C 19.53125 25.515625 19.253906 25.65625 19.078125 25.898438 C 18.867188 26.1875 18.53125 26.359375 18.171875 26.359375 L 14.453125 26.359375 L 14.453125 27.394531 C 14.453125 27.929688 14.886719 28.363281 15.425781 28.363281 L 30.511719 28.363281 C 31.046875 28.363281 31.480469 27.929688 31.480469 27.394531 L 31.480469 26.359375 Z M 27.757812 26.359375 "/>
<path style=" stroke:none;fill-rule:nonzero;fill:rgb(79.607843%,76.862745%,80%);fill-opacity:1;" d="M 17.160156 27.394531 L 17.160156 26.359375 L 14.453125 26.359375 L 14.453125 27.394531 C 14.453125 27.929688 14.886719 28.363281 15.425781 28.363281 L 18.128906 28.363281 C 17.59375 28.363281 17.160156 27.929688 17.160156 27.394531 Z M 17.160156 27.394531 "/>
<path style=" stroke:none;fill-rule:nonzero;fill:rgb(99.215686%,27.843137%,33.333333%);fill-opacity:1;" d="M 22.96875 18.695312 L 28.21875 10.839844 C 31.027344 6.640625 28.019531 1.007812 22.96875 1.007812 C 17.917969 1.007812 14.90625 6.640625 17.714844 10.839844 Z M 22.96875 18.695312 "/>
<path style=" stroke:none;fill-rule:nonzero;fill:rgb(98.431373%,16.862745%,22.745098%);fill-opacity:1;" d="M 20.613281 10.367188 C 19.691406 9.660156 19.097656 8.546875 19.097656 7.296875 C 19.097656 6.023438 19.71875 4.890625 20.671875 4.1875 C 21.488281 2.757812 22.851562 1.640625 24.5625 1.207031 C 24.058594 1.078125 23.523438 1.007812 22.96875 1.007812 C 17.917969 1.007812 14.90625 6.640625 17.714844 10.839844 L 22.96875 18.695312 L 24.5625 16.3125 L 20.902344 10.839844 C 20.796875 10.6875 20.703125 10.527344 20.613281 10.367188 Z M 20.613281 10.367188 "/>
<path style=" stroke:none;fill-rule:nonzero;fill:rgb(100%,88.235294%,46.666667%);fill-opacity:1;" d="M 25.699219 4.566406 C 27.210938 6.074219 27.210938 8.523438 25.699219 10.035156 C 24.1875 11.546875 21.738281 11.546875 20.230469 10.035156 C 18.71875 8.523438 18.71875 6.074219 20.230469 4.566406 C 21.738281 3.054688 24.1875 3.054688 25.699219 4.566406 Z M 25.699219 4.566406 "/>
<path style=" stroke:none;fill-rule:nonzero;fill:rgb(100%,81.960784%,35.686275%);fill-opacity:1;" d="M 21.28125 7.296875 C 21.28125 5.539062 22.453125 4.058594 24.058594 3.585938 C 23.703125 3.484375 23.335938 3.429688 22.96875 3.429688 C 20.832031 3.429688 19.097656 5.160156 19.097656 7.296875 C 19.097656 9.433594 20.832031 11.167969 22.96875 11.167969 C 23.347656 11.167969 23.710938 11.113281 24.058594 11.011719 C 22.453125 10.539062 21.28125 9.054688 21.28125 7.296875 Z M 21.28125 7.296875 "/>
<path style=" stroke:none;fill-rule:nonzero;fill:rgb(99.215686%,50.196078%,52.941176%);fill-opacity:1;" d="M 22.96875 11.636719 C 20.578125 11.636719 18.628906 9.691406 18.628906 7.296875 C 18.628906 4.90625 20.578125 2.960938 22.96875 2.960938 C 25.359375 2.960938 27.304688 4.90625 27.304688 7.296875 C 27.304688 9.691406 25.359375 11.636719 22.96875 11.636719 Z M 22.96875 3.898438 C 21.09375 3.898438 19.566406 5.425781 19.566406 7.296875 C 19.566406 9.171875 21.09375 10.699219 22.96875 10.699219 C 24.84375 10.699219 26.367188 9.171875 26.367188 7.296875 C 26.367188 5.425781 24.84375 3.898438 22.96875 3.898438 Z M 22.96875 3.898438 "/>
<path style=" stroke:none;fill-rule:nonzero;fill:rgb(100%,100%,100%);fill-opacity:1;" d="M 22.417969 9.917969 C 22.246094 9.917969 22.085938 9.820312 22.003906 9.664062 C 21.921875 9.511719 21.933594 9.324219 22.035156 9.179688 L 23.011719 7.765625 L 22.027344 7.765625 C 21.851562 7.765625 21.691406 7.671875 21.613281 7.515625 C 21.53125 7.363281 21.542969 7.175781 21.640625 7.03125 L 23.132812 4.882812 C 23.277344 4.667969 23.570312 4.617188 23.785156 4.765625 C 23.996094 4.910156 24.050781 5.203125 23.902344 5.417969 L 22.921875 6.828125 L 23.90625 6.828125 C 24.082031 6.828125 24.242188 6.925781 24.324219 7.082031 C 24.40625 7.234375 24.394531 7.421875 24.292969 7.566406 L 22.804688 9.714844 C 22.71875 9.839844 22.574219 9.917969 22.417969 9.917969 Z M 22.417969 9.917969 "/>
<path style=" stroke:none;fill-rule:nonzero;fill:rgb(100%,88.235294%,46.666667%);fill-opacity:1;" d="M 14.453125 26.359375 L 14.453125 24.433594 C 14.453125 23.746094 14.6875 23.109375 15.078125 22.601562 C 16.308594 22.976562 17.207031 24.117188 17.207031 25.472656 L 17.207031 26.359375 Z M 14.453125 26.359375 "/>
</g>
</svg>
