<?xml version="1.0" encoding="UTF-8"?>
<svg xmlns="http://www.w3.org/2000/svg" xmlns:xlink="http://www.w3.org/1999/xlink" width="54px" height="54px" viewBox="0 0 54 54" version="1.1">
<g id="surface1">
<path style=" stroke:none;fill-rule:nonzero;fill:rgb(88.627451%,87.058824%,88.627451%);fill-opacity:1;" d="M 25.425781 51.769531 L 25.425781 51.03125 L 25.320312 50.714844 L 21.285156 50.714844 L 21.285156 52.117188 L 21.390625 52.296875 L 25.847656 52.296875 L 25.808594 52.1875 C 25.59375 52.167969 25.425781 51.992188 25.425781 51.769531 Z M 47.933594 51.769531 L 47.933594 51.03125 L 47.828125 50.714844 L 29.691406 50.714844 L 29.585938 51.03125 L 29.585938 51.769531 C 29.585938 51.992188 29.414062 52.167969 29.199219 52.1875 L 29.164062 52.296875 L 48.355469 52.296875 L 48.316406 52.1875 C 48.101562 52.167969 47.933594 51.992188 47.933594 51.769531 Z M 47.933594 51.769531 "/>
<path style=" stroke:none;fill-rule:nonzero;fill:rgb(0.784314%,78.039216%,86.666667%);fill-opacity:1;" d="M 10.695312 29.214844 C 13.070312 29.214844 15.007812 27.273438 15.007812 24.902344 L 15.007812 23.503906 L 6.382812 23.503906 L 6.382812 24.902344 C 6.382812 27.273438 8.324219 29.214844 10.695312 29.214844 Z M 10.695312 29.214844 "/>
<path style=" stroke:none;fill-rule:nonzero;fill:rgb(2.745098%,69.803922%,80.392157%);fill-opacity:1;" d="M 9.011719 24.902344 L 9.011719 23.503906 L 6.382812 23.503906 L 6.382812 24.902344 C 6.382812 27.273438 8.324219 29.214844 10.695312 29.214844 C 11.097656 29.214844 11.496094 29.15625 11.882812 29.046875 C 10.207031 28.414062 9.011719 26.796875 9.011719 24.902344 Z M 9.011719 24.902344 "/>
<path style=" stroke:none;fill-rule:nonzero;fill:rgb(95.294118%,94.117647%,95.294118%);fill-opacity:1;" d="M 19.789062 47.980469 L 19.789062 18.257812 C 19.789062 13.234375 15.71875 9.164062 10.695312 9.164062 C 5.675781 9.164062 1.601562 13.234375 1.601562 18.257812 L 1.601562 47.980469 Z M 6.382812 18.605469 C 6.382812 16.234375 8.324219 14.292969 10.695312 14.292969 C 13.070312 14.292969 15.007812 16.234375 15.007812 18.605469 L 15.007812 24.902344 C 15.007812 27.273438 13.070312 29.214844 10.695312 29.214844 C 8.324219 29.214844 6.382812 27.273438 6.382812 24.902344 Z M 6.382812 18.605469 "/>
<path style=" stroke:none;fill-rule:nonzero;fill:rgb(88.627451%,87.058824%,88.627451%);fill-opacity:1;" d="M 12.238281 9.296875 C 11.726562 9.207031 11.210938 9.164062 10.695312 9.164062 C 5.675781 9.164062 1.601562 13.234375 1.601562 18.257812 L 1.601562 47.980469 L 4.683594 47.980469 L 4.683594 18.257812 C 4.683594 13.761719 7.949219 10.027344 12.238281 9.296875 Z M 12.238281 9.296875 "/>
<path style=" stroke:none;fill-rule:nonzero;fill:rgb(79.607843%,76.862745%,80%);fill-opacity:1;" d="M 10.695312 30.007812 C 7.882812 30.007812 5.589844 27.714844 5.589844 24.902344 L 5.589844 18.605469 C 5.589844 15.792969 7.882812 13.503906 10.695312 13.503906 C 13.511719 13.503906 15.800781 15.792969 15.800781 18.605469 L 15.800781 24.902344 C 15.800781 27.714844 13.511719 30.007812 10.695312 30.007812 Z M 10.695312 15.082031 C 8.753906 15.082031 7.171875 16.664062 7.171875 18.605469 L 7.171875 24.902344 C 7.171875 26.84375 8.753906 28.421875 10.695312 28.421875 C 12.636719 28.421875 14.21875 26.84375 14.21875 24.902344 L 14.21875 18.605469 C 14.21875 16.664062 12.636719 15.082031 10.695312 15.082031 Z M 10.695312 15.082031 "/>
<path style=" stroke:none;fill-rule:nonzero;fill:rgb(100%,88.235294%,46.666667%);fill-opacity:1;" d="M 15.433594 37.359375 L 5.957031 37.359375 C 5.605469 37.359375 5.316406 37.074219 5.316406 36.71875 L 5.316406 33.132812 C 5.316406 32.78125 5.605469 32.492188 5.957031 32.496094 L 15.433594 32.496094 C 15.789062 32.492188 16.074219 32.78125 16.074219 33.132812 L 16.074219 36.71875 C 16.074219 37.074219 15.789062 37.359375 15.433594 37.359375 Z M 15.433594 37.359375 "/>
<path style=" stroke:none;fill-rule:nonzero;fill:rgb(100%,81.960784%,35.686275%);fill-opacity:1;" d="M 8.316406 36.71875 L 8.316406 33.132812 C 8.316406 32.78125 8.601562 32.492188 8.957031 32.492188 L 5.957031 32.492188 C 5.605469 32.492188 5.316406 32.78125 5.316406 33.132812 L 5.316406 36.71875 C 5.316406 37.074219 5.605469 37.359375 5.957031 37.359375 L 8.957031 37.359375 C 8.601562 37.359375 8.316406 37.074219 8.316406 36.71875 Z M 8.316406 36.71875 "/>
<path style=" stroke:none;fill-rule:nonzero;fill:rgb(0.784314%,78.039216%,86.666667%);fill-opacity:1;" d="M 21.390625 52.296875 L 0.582031 52.296875 C 0.261719 52.296875 0 52.035156 0 51.714844 L 0 48.449219 C 0 48.128906 0.261719 47.867188 0.582031 47.867188 L 20.808594 47.867188 C 21.132812 47.867188 21.390625 48.128906 21.390625 48.449219 Z M 21.390625 52.296875 "/>
<path style=" stroke:none;fill-rule:nonzero;fill:rgb(2.745098%,69.803922%,80.392157%);fill-opacity:1;" d="M 4.617188 51.714844 L 4.617188 48.449219 C 4.617188 48.128906 4.878906 47.867188 5.199219 47.867188 L 0.582031 47.867188 C 0.261719 47.867188 0 48.128906 0 48.449219 L 0 51.714844 C 0 52.035156 0.261719 52.296875 0.582031 52.296875 L 5.199219 52.296875 C 4.878906 52.296875 4.617188 52.035156 4.617188 51.714844 Z M 4.617188 51.714844 "/>
<path style=" stroke:none;fill-rule:nonzero;fill:rgb(0.784314%,78.039216%,86.666667%);fill-opacity:1;" d="M 9.296875 40.964844 L 5.800781 40.964844 C 5.363281 40.964844 5.007812 40.609375 5.007812 40.171875 C 5.007812 39.738281 5.363281 39.382812 5.800781 39.382812 L 9.296875 39.382812 C 9.734375 39.382812 10.089844 39.738281 10.089844 40.171875 C 10.089844 40.609375 9.734375 40.964844 9.296875 40.964844 Z M 15.59375 40.964844 L 15.359375 40.964844 C 14.921875 40.964844 14.566406 40.609375 14.566406 40.171875 C 14.566406 39.738281 14.921875 39.382812 15.359375 39.382812 L 15.59375 39.382812 C 16.027344 39.382812 16.382812 39.738281 16.382812 40.171875 C 16.382812 40.609375 16.027344 40.964844 15.59375 40.964844 Z M 13 40.964844 L 12.765625 40.964844 C 12.328125 40.964844 11.972656 40.609375 11.972656 40.171875 C 11.972656 39.738281 12.328125 39.382812 12.765625 39.382812 L 13 39.382812 C 13.433594 39.382812 13.789062 39.738281 13.789062 40.171875 C 13.789062 40.609375 13.433594 40.964844 13 40.964844 Z M 13 40.964844 "/>
<path style=" stroke:none;fill-rule:nonzero;fill:rgb(2.745098%,69.803922%,80.392157%);fill-opacity:1;" d="M 52.144531 33.335938 L 50.855469 33.335938 C 50.273438 33.332031 49.707031 33.535156 49.253906 33.902344 L 49.167969 34.007812 L 49.992188 36.6875 L 50.042969 36.710938 C 50.265625 36.808594 50.480469 36.921875 50.6875 37.050781 L 52.144531 37.050781 C 53.167969 37.050781 54 36.21875 54 35.191406 C 54 34.164062 53.167969 33.335938 52.144531 33.335938 Z M 26.832031 37.050781 C 27.035156 36.921875 27.25 36.808594 27.472656 36.710938 L 27.523438 36.6875 L 28.332031 34.054688 L 28.261719 33.902344 C 27.808594 33.535156 27.246094 33.332031 26.664062 33.335938 L 25.375 33.335938 C 24.347656 33.335938 23.515625 34.164062 23.515625 35.191406 C 23.515625 36.21875 24.347656 37.050781 25.375 37.050781 Z M 26.832031 37.050781 "/>
<path style=" stroke:none;fill-rule:nonzero;fill:rgb(0.392157%,50.980392%,98.823529%);fill-opacity:1;" d="M 44.71875 28.863281 L 32.796875 28.863281 C 31.015625 28.863281 29.441406 30.027344 28.917969 31.730469 L 27.382812 36.734375 C 28.03125 36.433594 28.734375 36.277344 29.449219 36.277344 L 48.066406 36.277344 C 48.78125 36.277344 49.484375 36.433594 50.132812 36.734375 L 48.597656 31.730469 C 48.074219 30.027344 46.5 28.863281 44.71875 28.863281 Z M 44.71875 28.863281 "/>
<path style=" stroke:none;fill-rule:nonzero;fill:rgb(0.392157%,44.705882%,98.431373%);fill-opacity:1;" d="M 32.449219 31.730469 C 32.972656 30.027344 34.542969 28.867188 36.328125 28.867188 L 32.796875 28.867188 C 31.015625 28.867188 29.441406 30.027344 28.917969 31.730469 L 27.382812 36.734375 C 28.03125 36.433594 28.734375 36.277344 29.449219 36.277344 L 31.050781 36.277344 Z M 32.449219 31.730469 "/>
<path style=" stroke:none;fill-rule:nonzero;fill:rgb(0.784314%,78.039216%,86.666667%);fill-opacity:1;" d="M 28.308594 36.414062 L 29.675781 31.964844 C 30.097656 30.582031 31.355469 29.65625 32.796875 29.65625 L 44.71875 29.65625 C 46.164062 29.65625 47.417969 30.582031 47.84375 31.964844 L 49.207031 36.414062 C 49.875 36.570312 50.5 36.867188 51.046875 37.28125 L 51.121094 37.257812 L 49.355469 31.5 C 48.726562 29.449219 46.863281 28.074219 44.71875 28.074219 L 32.796875 28.074219 C 30.65625 28.074219 28.792969 29.449219 28.164062 31.5 L 26.394531 37.257812 L 26.46875 37.28125 C 27.015625 36.867188 27.640625 36.570312 28.308594 36.414062 Z M 28.308594 36.414062 "/>
<path style=" stroke:none;fill-rule:nonzero;fill:rgb(40.784314%,36.862745%,40.784314%);fill-opacity:1;" d="M 26.03125 47.761719 C 25.773438 47.761719 25.53125 47.699219 25.320312 47.585938 L 25.320312 51.769531 C 25.320312 52.0625 25.554688 52.296875 25.847656 52.296875 L 29.164062 52.296875 C 29.453125 52.296875 29.691406 52.0625 29.691406 51.769531 L 29.691406 47.761719 Z M 26.03125 47.761719 "/>
<path style=" stroke:none;fill-rule:nonzero;fill:rgb(33.333333%,30.588235%,33.72549%);fill-opacity:1;" d="M 26.03125 47.761719 C 25.773438 47.761719 25.53125 47.699219 25.320312 47.585938 L 25.320312 51.769531 C 25.320312 52.0625 25.554688 52.296875 25.847656 52.296875 L 27.433594 52.296875 L 27.433594 47.761719 Z M 26.03125 47.761719 "/>
<path style=" stroke:none;fill-rule:nonzero;fill:rgb(40.784314%,36.862745%,40.784314%);fill-opacity:1;" d="M 51.488281 47.761719 L 47.828125 47.761719 L 47.828125 51.769531 C 47.828125 52.0625 48.0625 52.296875 48.355469 52.296875 L 51.671875 52.296875 C 51.960938 52.296875 52.199219 52.0625 52.199219 51.769531 L 52.199219 47.585938 C 51.976562 47.703125 51.734375 47.761719 51.488281 47.761719 Z M 51.488281 47.761719 "/>
<path style=" stroke:none;fill-rule:nonzero;fill:rgb(33.333333%,30.588235%,33.72549%);fill-opacity:1;" d="M 47.828125 47.761719 L 47.828125 51.769531 C 47.828125 52.0625 48.0625 52.296875 48.355469 52.296875 L 49.816406 52.296875 L 49.816406 47.761719 Z M 47.828125 47.761719 "/>
<path style=" stroke:none;fill-rule:nonzero;fill:rgb(0.784314%,78.039216%,86.666667%);fill-opacity:1;" d="M 48.585938 44.375 L 48.585938 42.980469 C 48.585938 40.824219 49.953125 38.945312 51.992188 38.277344 L 52.066406 38.140625 C 51.140625 36.945312 49.695312 36.175781 48.066406 36.175781 L 29.449219 36.175781 C 27.820312 36.175781 26.375 36.945312 25.449219 38.140625 L 25.523438 38.277344 C 27.566406 38.945312 28.929688 40.824219 28.929688 42.980469 L 28.929688 44.375 L 28.917969 44.375 L 29.035156 44.582031 L 30.667969 44.582031 C 31.300781 44.582031 31.90625 44.277344 32.277344 43.761719 C 32.554688 43.386719 32.992188 43.164062 33.457031 43.164062 L 44.054688 43.164062 C 44.519531 43.164062 44.960938 43.386719 45.234375 43.761719 C 45.609375 44.277344 46.207031 44.582031 46.84375 44.582031 L 48.484375 44.582031 L 48.597656 44.375 Z M 48.585938 44.375 "/>
<path style=" stroke:none;fill-rule:nonzero;fill:rgb(2.745098%,69.803922%,80.392157%);fill-opacity:1;" d="M 29.449219 36.175781 C 27.820312 36.175781 26.371094 36.945312 25.449219 38.140625 C 27.246094 38.6875 28.621094 40.210938 28.957031 42.09375 L 28.957031 41.234375 C 28.957031 38.441406 31.222656 36.175781 34.015625 36.175781 Z M 29.449219 36.175781 "/>
<path style=" stroke:none;fill-rule:nonzero;fill:rgb(100%,94.117647%,67.843137%);fill-opacity:1;" d="M 24.390625 44.480469 L 24.390625 41.234375 C 24.390625 40.070312 24.785156 38.996094 25.449219 38.140625 C 27.523438 38.773438 29.035156 40.699219 29.035156 42.984375 L 29.035156 44.480469 Z M 24.390625 44.480469 "/>
<path style=" stroke:none;fill-rule:nonzero;fill:rgb(100%,88.235294%,46.666667%);fill-opacity:1;" d="M 53.125 44.480469 L 53.125 41.234375 C 53.125 40.070312 52.730469 38.996094 52.070312 38.140625 C 49.992188 38.773438 48.484375 40.699219 48.484375 42.984375 L 48.484375 44.480469 Z M 53.125 44.480469 "/>
<path style=" stroke:none;fill-rule:nonzero;fill:rgb(100%,94.117647%,67.843137%);fill-opacity:1;" d="M 24.390625 44.480469 L 24.390625 41.234375 C 24.390625 40.070312 24.785156 38.996094 25.449219 38.140625 C 27.523438 38.773438 29.035156 40.699219 29.035156 42.984375 L 29.035156 44.480469 Z M 24.390625 44.480469 "/>
<path style=" stroke:none;fill-rule:nonzero;fill:rgb(88.627451%,87.058824%,88.627451%);fill-opacity:1;" d="M 46.84375 44.480469 C 46.238281 44.480469 45.671875 44.191406 45.316406 43.699219 C 45.023438 43.296875 44.554688 43.058594 44.054688 43.058594 L 33.457031 43.058594 C 32.957031 43.058594 32.488281 43.296875 32.195312 43.699219 C 31.839844 44.191406 31.273438 44.480469 30.667969 44.480469 L 24.390625 44.480469 L 24.390625 46.226562 C 24.390625 47.132812 25.125 47.867188 26.03125 47.867188 L 51.488281 47.867188 C 52.390625 47.867188 53.125 47.132812 53.125 46.226562 L 53.125 44.480469 Z M 46.84375 44.480469 "/>
<path style=" stroke:none;fill-rule:nonzero;fill:rgb(79.607843%,76.862745%,80%);fill-opacity:1;" d="M 28.957031 46.226562 L 28.957031 44.480469 L 24.390625 44.480469 L 24.390625 46.226562 C 24.390625 47.132812 25.125 47.867188 26.03125 47.867188 L 30.59375 47.867188 C 29.6875 47.867188 28.957031 47.132812 28.957031 46.226562 Z M 28.957031 46.226562 "/>
<path style=" stroke:none;fill-rule:nonzero;fill:rgb(99.215686%,27.843137%,33.333333%);fill-opacity:1;" d="M 38.757812 31.546875 L 47.621094 18.292969 C 52.359375 11.207031 47.28125 1.703125 38.757812 1.703125 C 30.234375 1.703125 25.15625 11.207031 29.894531 18.292969 Z M 38.757812 31.546875 "/>
<path style=" stroke:none;fill-rule:nonzero;fill:rgb(98.431373%,16.862745%,22.745098%);fill-opacity:1;" d="M 34.78125 17.492188 C 33.230469 16.300781 32.230469 14.425781 32.230469 12.316406 C 32.230469 10.164062 33.273438 8.253906 34.882812 7.0625 C 36.261719 4.652344 38.5625 2.765625 41.445312 2.035156 C 40.597656 1.820312 39.699219 1.703125 38.757812 1.703125 C 30.234375 1.703125 25.15625 11.207031 29.894531 18.292969 L 38.757812 31.546875 L 41.445312 27.527344 L 35.269531 18.292969 C 35.097656 18.035156 34.933594 17.765625 34.78125 17.492188 Z M 34.78125 17.492188 "/>
<path style=" stroke:none;fill-rule:nonzero;fill:rgb(100%,88.235294%,46.666667%);fill-opacity:1;" d="M 43.367188 7.703125 C 45.917969 10.253906 45.917969 14.386719 43.367188 16.9375 C 40.820312 19.484375 36.6875 19.484375 34.136719 16.9375 C 31.585938 14.386719 31.585938 10.253906 34.136719 7.703125 C 36.6875 5.152344 40.820312 5.152344 43.367188 7.703125 Z M 43.367188 7.703125 "/>
<path style=" stroke:none;fill-rule:nonzero;fill:rgb(100%,81.960784%,35.686275%);fill-opacity:1;" d="M 35.910156 12.316406 C 35.910156 9.351562 37.890625 6.847656 40.597656 6.054688 C 40 5.878906 39.382812 5.789062 38.757812 5.789062 C 35.152344 5.789062 32.230469 8.710938 32.230469 12.316406 C 32.230469 15.921875 35.152344 18.84375 38.757812 18.84375 C 39.398438 18.84375 40.015625 18.75 40.597656 18.582031 C 37.890625 17.785156 35.910156 15.28125 35.910156 12.316406 Z M 35.910156 12.316406 "/>
<path style=" stroke:none;fill-rule:nonzero;fill:rgb(99.215686%,50.196078%,52.941176%);fill-opacity:1;" d="M 38.757812 19.636719 C 34.722656 19.636719 31.4375 16.351562 31.4375 12.316406 C 31.4375 8.28125 34.722656 4.996094 38.757812 4.996094 C 42.792969 4.996094 46.078125 8.28125 46.078125 12.316406 C 46.078125 16.351562 42.792969 19.636719 38.757812 19.636719 Z M 38.757812 6.578125 C 35.59375 6.578125 33.019531 9.152344 33.019531 12.316406 C 33.019531 15.480469 35.59375 18.054688 38.757812 18.054688 C 41.921875 18.054688 44.496094 15.480469 44.496094 12.316406 C 44.496094 9.152344 41.921875 6.578125 38.757812 6.578125 Z M 38.757812 6.578125 "/>
<path style=" stroke:none;fill-rule:nonzero;fill:rgb(100%,100%,100%);fill-opacity:1;" d="M 37.832031 16.734375 C 37.539062 16.734375 37.269531 16.570312 37.132812 16.308594 C 36.996094 16.050781 37.015625 15.734375 37.183594 15.492188 L 38.835938 13.109375 L 37.171875 13.109375 C 36.878906 13.109375 36.605469 12.945312 36.472656 12.683594 C 36.335938 12.421875 36.355469 12.109375 36.519531 11.867188 L 39.035156 8.238281 C 39.28125 7.878906 39.777344 7.789062 40.132812 8.039062 C 40.492188 8.289062 40.582031 8.78125 40.335938 9.140625 L 38.683594 11.523438 L 40.34375 11.523438 C 40.640625 11.523438 40.910156 11.6875 41.046875 11.949219 C 41.183594 12.210938 41.164062 12.523438 40.996094 12.765625 L 38.484375 16.394531 C 38.335938 16.609375 38.089844 16.734375 37.832031 16.734375 Z M 37.832031 16.734375 "/>
<path style=" stroke:none;fill-rule:nonzero;fill:rgb(100%,88.235294%,46.666667%);fill-opacity:1;" d="M 24.390625 44.480469 L 24.390625 41.234375 C 24.390625 40.070312 24.785156 38.996094 25.449219 38.140625 C 27.523438 38.773438 29.035156 40.699219 29.035156 42.984375 L 29.035156 44.480469 Z M 24.390625 44.480469 "/>
</g>
</svg>
