<svg xmlns="http://www.w3.org/2000/svg" width="158.367" height="180.639" viewBox="0 0 158.367 180.639">
  <g id="charge-on-wheels-icon-vector" transform="translate(-100 -78.91)">
    <path id="Path_210722" data-name="Path 210722" d="M258.161,90.376a13.843,13.843,0,0,0-13.62-11.466H113.825A13.842,13.842,0,0,0,100,92.735V225.949a11.886,11.886,0,0,0,11.872,11.872h5.2v11.086a10.652,10.652,0,0,0,10.642,10.642h24.135a10.652,10.652,0,0,0,10.642-10.642v-9.412h7.142a3.768,3.768,0,0,0,3.769-3.769V153.87h.866a3.3,3.3,0,0,0,1.188.222,12.591,12.591,0,0,0,2.339-.222h.317a3.737,3.737,0,0,0,2.317-.8,12.674,12.674,0,0,0,7.681-11.635V129.8a3.35,3.35,0,0,0-3.352-3.352h-2.465V115.846a3.352,3.352,0,0,0-6.7,0v10.605h-9.581V115.846a3.352,3.352,0,0,0-6.7,0v10.605h-2.465a3.35,3.35,0,0,0-3.352,3.352v11.629a12.674,12.674,0,0,0,7.681,11.635,3.737,3.737,0,0,0,2.317.8h.317a12.475,12.475,0,0,0,2.053.211v77.864h-7.142a3.768,3.768,0,0,0-3.769,3.769V248.9a3.1,3.1,0,0,1-3.1,3.1h-24.13a3.1,3.1,0,0,1-3.1-3.1V234.041a3.771,3.771,0,0,0-3.769-3.769h-8.974a4.335,4.335,0,0,1-4.329-4.329V92.735a6.29,6.29,0,0,1,6.282-6.282H244.542a6.29,6.29,0,0,1,6.282,6.282V222.311a3.445,3.445,0,0,1,0,1.14,6.29,6.29,0,0,1-6.282,6.282h-7.09a3.768,3.768,0,0,0-3.769,3.769,3.66,3.66,0,0,0,.169,1.109,3.832,3.832,0,0,0-.169,1.109V248.9a3.1,3.1,0,0,1-3.1,3.1H206.449a3.1,3.1,0,0,1-3.1-3.1V235.72a3.771,3.771,0,0,0-3.769-3.769H186.944a3.769,3.769,0,1,0,0,7.538H195.8V248.9a10.652,10.652,0,0,0,10.642,10.642h24.135A10.652,10.652,0,0,0,241.221,248.9V237.272h3.32a13.842,13.842,0,0,0,13.825-13.825,3.444,3.444,0,0,1,0-1.14V91.6A3.718,3.718,0,0,0,258.161,90.376ZM160.2,141.439v-8.283h21.216v8.283a5.945,5.945,0,0,1-2.655,4.952,3.638,3.638,0,0,0-.639-.058H163.489a3.685,3.685,0,0,0-.639.058A5.965,5.965,0,0,1,160.2,141.439Z" fill="#9ccdfb"/>
  </g>
</svg>
