<?xml version="1.0" encoding="UTF-8"?>
<svg xmlns="http://www.w3.org/2000/svg" xmlns:xlink="http://www.w3.org/1999/xlink" width="32px" height="32px" viewBox="0 0 32 32" version="1.1">
<g id="surface1">
<path style=" stroke:none;fill-rule:nonzero;fill:rgb(0%,0%,0%);fill-opacity:1;" d="M 31.523438 14.867188 L 17.125 0.46875 C 16.5 -0.15625 15.484375 -0.15625 14.867188 0.46875 L 0.46875 14.867188 C -0.15625 15.492188 -0.15625 16.507812 0.46875 17.132812 L 14.867188 31.523438 L 14.867188 31.53125 C 15.492188 32.15625 16.507812 32.15625 17.132812 31.53125 L 31.53125 17.132812 C 32.15625 16.5 32.15625 15.492188 31.523438 14.867188 Z M 19.195312 19.996094 L 19.195312 15.996094 L 12.796875 15.996094 L 12.796875 20.796875 L 9.597656 20.796875 L 9.597656 14.394531 C 9.59375 13.972656 9.761719 13.5625 10.0625 13.261719 C 10.363281 12.960938 10.773438 12.792969 11.195312 12.796875 L 19.195312 12.796875 L 19.195312 8.796875 L 24.796875 14.394531 Z M 19.195312 19.996094 "/>
</g>
</svg>
