<?xml version="1.0" encoding="UTF-8"?>
<svg xmlns="http://www.w3.org/2000/svg" xmlns:xlink="http://www.w3.org/1999/xlink" width="64px" height="64px" viewBox="0 0 64 64" version="1.1">
<g id="surface1">
<path style=" stroke:none;fill-rule:nonzero;fill:rgb(48.235294%,42.352941%,47.45098%);fill-opacity:1;" d="M 45.558594 32.097656 L 41.707031 27.523438 L 13.34375 58.273438 L 17.269531 62.953125 C 17.472656 63.101562 17.773438 63.117188 17.988281 62.882812 L 45.539062 32.804688 C 45.738281 32.589844 45.714844 32.289062 45.558594 32.097656 "/>
<path style=" stroke:none;fill-rule:nonzero;fill:rgb(40%,36.862745%,40.784314%);fill-opacity:1;" d="M 18.875 59.878906 C 18.105469 58.960938 18.136719 57.617188 18.949219 56.734375 L 43.707031 29.898438 L 41.707031 27.523438 L 13.34375 58.273438 L 13.34375 58.277344 L 17.269531 62.953125 C 17.472656 63.101562 17.773438 63.117188 17.988281 62.882812 L 19.769531 60.941406 Z M 18.875 59.878906 "/>
<path style=" stroke:none;fill-rule:nonzero;fill:rgb(48.235294%,42.352941%,47.45098%);fill-opacity:1;" d="M 50.769531 5.828125 L 46.867188 1.171875 C 46.976562 1.335938 46.5 1.550781 46.386719 1.746094 L 31.945312 26.5625 C 31.738281 26.921875 32 27.371094 32.414062 27.371094 L 38.8125 27.246094 L 50.792969 6.402344 C 50.902344 6.210938 50.878906 5.992188 50.769531 5.828125 "/>
<path style=" stroke:none;fill-rule:nonzero;fill:rgb(40%,36.862745%,40.784314%);fill-opacity:1;" d="M 36.132812 26.5625 L 49.253906 4.019531 L 46.867188 1.171875 C 46.976562 1.335938 46.5 1.550781 46.386719 1.746094 L 31.945312 26.5625 C 31.738281 26.921875 32 27.371094 32.414062 27.371094 L 36.324219 27.292969 C 36.085938 27.148438 35.980469 26.832031 36.132812 26.5625 "/>
<path style=" stroke:none;fill-rule:nonzero;fill:rgb(40%,36.862745%,40.784314%);fill-opacity:1;" d="M 24.386719 26.996094 L 15.597656 26.996094 C 15.4375 26.996094 15.300781 27.175781 15.207031 27.074219 L 19.050781 31.660156 C 19.148438 31.8125 19.320312 31.902344 19.5 31.902344 L 23.375 31.902344 L 24.886719 27.726562 C 25.023438 27.375 24.761719 26.996094 24.386719 26.996094 "/>
<path style=" stroke:none;fill-rule:nonzero;fill:rgb(99.607843%,88.235294%,49.019608%);fill-opacity:1;" d="M 46.886719 1.746094 C 47.09375 1.386719 46.835938 0.9375 46.421875 0.9375 L 26.660156 0.9375 C 26.445312 0.9375 26.25 1.0625 26.164062 1.261719 L 15.105469 26.488281 C 14.949219 26.84375 15.207031 27.246094 15.597656 27.246094 L 24.136719 27.246094 C 24.511719 27.246094 24.773438 27.625 24.636719 27.976562 L 13.183594 57.667969 C 12.972656 58.222656 13.683594 58.664062 14.085938 58.226562 L 41.636719 28.148438 C 41.953125 27.800781 41.707031 27.246094 41.238281 27.246094 L 33.164062 27.246094 C 32.75 27.246094 32.488281 26.796875 32.695312 26.4375 Z M 46.886719 1.746094 "/>
<path style=" stroke:none;fill-rule:nonzero;fill:rgb(100%,80.784314%,39.607843%);fill-opacity:1;" d="M 15.597656 27.246094 L 21.179688 27.246094 C 20.792969 27.246094 20.53125 26.84375 20.6875 26.488281 L 31.75 1.261719 C 31.835938 1.0625 32.027344 0.9375 32.242188 0.9375 L 26.660156 0.9375 C 26.445312 0.9375 26.25 1.0625 26.164062 1.261719 L 15.105469 26.488281 C 14.949219 26.84375 15.207031 27.246094 15.597656 27.246094 "/>
<path style=" stroke:none;fill-rule:nonzero;fill:rgb(100%,80.784314%,39.607843%);fill-opacity:1;" d="M 30.222656 27.976562 C 30.355469 27.625 30.097656 27.246094 29.71875 27.246094 L 24.136719 27.246094 C 24.511719 27.246094 24.773438 27.625 24.636719 27.976562 L 13.183594 57.667969 C 12.972656 58.222656 13.683594 58.664062 14.085938 58.226562 L 21.804688 49.796875 Z M 30.222656 27.976562 "/>
<path style="fill:none;stroke-width:15;stroke-linecap:round;stroke-linejoin:round;stroke:rgb(0%,0%,0%);stroke-opacity:1;stroke-miterlimit:10;" d="M 0.0142136 0.0123907 L -31.23588 37.262502 C -30.360877 35.949998 -30.173377 34.231243 -31.048379 32.668738 L -144.579968 -164.863102 C -146.236223 -167.738111 -144.173717 -171.331871 -140.861207 -171.331871 L -95.642322 -171.331871 L 0.170464 -4.581373 C 1.076717 -3.050118 0.889216 -1.300113 0.0142136 0.0123907 Z M 0.0142136 0.0123907 " transform="matrix(0.125,0,0,-0.125,50.763848,5.829674)"/>
<path style="fill:none;stroke-width:15;stroke-linecap:round;stroke-linejoin:round;stroke:rgb(0%,0%,0%);stroke-opacity:1;stroke-miterlimit:10;" d="M -0.00517317 -0.0128713 L -68.317877 -0.0128713 C -69.505381 -0.0128713 -70.630384 0.48713 -71.442887 1.362133 L -40.692795 -35.325477 C -39.880292 -36.544231 -38.536538 -37.262983 -37.067784 -37.262983 L -8.098947 -37.262983 L 4.026089 -5.856639 C 5.119842 -3.04413 3.026086 -0.0128713 -0.00517317 -0.0128713 Z M -0.00517317 -0.0128713 " transform="matrix(0.125,0,0,-0.125,24.129553,27.244485)"/>
<path style="fill:none;stroke-width:15;stroke-linecap:round;stroke-linejoin:round;stroke:rgb(0%,0%,0%);stroke-opacity:1;stroke-miterlimit:10;" d="M -0.00472024 -0.000492408 L -47.723613 -0.000492408 C -49.411118 -0.000492408 -50.973623 -1.000495 -51.661125 -2.59425 L -140.161389 -204.407353 C -141.411393 -207.251112 -139.317637 -210.469871 -136.223877 -210.469871 L -67.911173 -210.469871 C -64.879914 -210.469871 -62.786158 -213.50113 -63.879911 -216.313639 L -155.505185 -453.845599 C -157.22394 -458.283112 -151.505173 -461.814372 -148.317663 -458.314362 L 72.089245 -217.688643 C 74.620503 -214.907385 72.682997 -210.469871 68.932986 -210.469871 L 4.307793 -210.469871 C 0.995283 -210.469871 -1.067223 -206.876111 0.589032 -204.001102 L 114.120621 -6.469262 C 115.776876 -3.594253 113.71437 -0.000492408 110.40186 -0.000492408 L 34.995384 -0.000492408 " transform="matrix(0.125,0,0,-0.125,32.617778,0.937438)"/>
<path style="fill:none;stroke-width:15;stroke-linecap:round;stroke-linejoin:round;stroke:rgb(0%,0%,0%);stroke-opacity:1;stroke-miterlimit:10;" d="M 0.00356496 -0.00580297 L 91.566339 99.963246 C 93.128843 101.682001 92.972593 104.088258 91.691339 105.619513 L 60.909997 142.213372 C 61.753749 140.713368 61.691249 138.713362 60.316245 137.213357 L -160.090663 -103.412362 C -161.871919 -105.349868 -164.403176 -105.131117 -166.028181 -103.787363 L -166.028181 -103.818613 L -134.621837 -141.224975 C -132.996832 -142.412479 -130.559325 -142.537479 -128.84057 -140.662473 L -23.777756 -25.974631 " transform="matrix(0.125,0,0,-0.125,34.089398,45.300056)"/>
</g>
</svg>
