<?xml version="1.0" encoding="UTF-8"?>
<svg xmlns="http://www.w3.org/2000/svg" xmlns:xlink="http://www.w3.org/1999/xlink" width="32px" height="32px" viewBox="0 0 32 32" version="1.1">
<g id="surface1">
<path style=" stroke:none;fill-rule:nonzero;fill:rgb(48.235294%,42.352941%,47.45098%);fill-opacity:1;" d="M 22.777344 16.046875 L 20.855469 13.761719 L 6.671875 29.136719 L 8.632812 31.476562 C 8.734375 31.550781 8.886719 31.558594 8.996094 31.441406 L 22.769531 16.402344 C 22.867188 16.292969 22.859375 16.144531 22.777344 16.046875 "/>
<path style=" stroke:none;fill-rule:nonzero;fill:rgb(40%,36.862745%,40.784314%);fill-opacity:1;" d="M 9.4375 29.941406 C 9.054688 29.480469 9.070312 28.808594 9.476562 28.367188 L 21.851562 14.949219 L 20.855469 13.761719 L 6.671875 29.136719 L 8.632812 31.476562 C 8.734375 31.550781 8.886719 31.558594 8.996094 31.441406 L 9.882812 30.46875 Z M 9.4375 29.941406 "/>
<path style=" stroke:none;fill-rule:nonzero;fill:rgb(48.235294%,42.352941%,47.45098%);fill-opacity:1;" d="M 25.382812 2.914062 L 23.433594 0.585938 C 23.488281 0.667969 23.25 0.777344 23.195312 0.871094 L 15.972656 13.28125 C 15.871094 13.460938 16 13.683594 16.207031 13.683594 L 19.40625 13.621094 L 25.394531 3.203125 C 25.453125 3.105469 25.441406 2.996094 25.382812 2.914062 "/>
<path style=" stroke:none;fill-rule:nonzero;fill:rgb(40%,36.862745%,40.784314%);fill-opacity:1;" d="M 18.066406 13.28125 L 24.625 2.011719 L 23.433594 0.585938 C 23.488281 0.667969 23.25 0.777344 23.195312 0.871094 L 15.972656 13.28125 C 15.871094 13.460938 16 13.683594 16.207031 13.683594 L 18.160156 13.648438 C 18.042969 13.574219 17.988281 13.414062 18.066406 13.28125 "/>
<path style=" stroke:none;fill-rule:nonzero;fill:rgb(40%,36.862745%,40.784314%);fill-opacity:1;" d="M 12.191406 13.496094 L 7.796875 13.496094 C 7.71875 13.496094 7.652344 13.589844 7.601562 13.539062 L 9.523438 15.828125 C 9.574219 15.90625 9.660156 15.953125 9.75 15.953125 L 11.6875 15.953125 L 12.445312 13.863281 C 12.511719 13.6875 12.382812 13.496094 12.191406 13.496094 "/>
<path style=" stroke:none;fill-rule:nonzero;fill:rgb(99.607843%,88.235294%,49.019608%);fill-opacity:1;" d="M 23.445312 0.871094 C 23.546875 0.691406 23.417969 0.46875 23.210938 0.46875 L 13.328125 0.46875 C 13.222656 0.46875 13.125 0.53125 13.082031 0.628906 L 7.550781 13.246094 C 7.472656 13.421875 7.605469 13.621094 7.796875 13.621094 L 12.066406 13.621094 C 12.257812 13.621094 12.386719 13.8125 12.320312 13.988281 L 6.59375 28.835938 C 6.484375 29.113281 6.839844 29.332031 7.042969 29.113281 L 20.816406 14.074219 C 20.976562 13.902344 20.855469 13.621094 20.621094 13.621094 L 16.582031 13.621094 C 16.375 13.621094 16.246094 13.398438 16.347656 13.21875 Z M 23.445312 0.871094 "/>
<path style=" stroke:none;fill-rule:nonzero;fill:rgb(100%,80.784314%,39.607843%);fill-opacity:1;" d="M 7.796875 13.621094 L 10.589844 13.621094 C 10.394531 13.621094 10.265625 13.421875 10.34375 13.246094 L 15.875 0.628906 C 15.917969 0.53125 16.015625 0.46875 16.121094 0.46875 L 13.328125 0.46875 C 13.222656 0.46875 13.125 0.53125 13.082031 0.628906 L 7.550781 13.246094 C 7.472656 13.421875 7.605469 13.621094 7.796875 13.621094 "/>
<path style=" stroke:none;fill-rule:nonzero;fill:rgb(100%,80.784314%,39.607843%);fill-opacity:1;" d="M 15.109375 13.988281 C 15.179688 13.8125 15.046875 13.621094 14.859375 13.621094 L 12.066406 13.621094 C 12.257812 13.621094 12.386719 13.8125 12.320312 13.988281 L 6.59375 28.835938 C 6.484375 29.113281 6.839844 29.332031 7.042969 29.113281 L 10.902344 24.898438 Z M 15.109375 13.988281 "/>
<path style="fill:none;stroke-width:15;stroke-linecap:round;stroke-linejoin:round;stroke:rgb(0%,0%,0%);stroke-opacity:1;stroke-miterlimit:10;" d="M 0.0142136 0.0123907 L -31.23588 37.262502 C -30.360877 35.949998 -30.173377 34.199993 -31.048379 32.699988 L -144.611219 -164.863102 C -146.236223 -167.738111 -144.173717 -171.300621 -140.861207 -171.300621 L -95.673572 -171.300621 L 0.201714 -4.612623 C 1.076717 -3.050118 0.889216 -1.300113 0.0142136 0.0123907 Z M 0.0142136 0.0123907 " transform="matrix(0.0624998,0,0,-0.0624998,25.381924,2.914837)"/>
<path style="fill:none;stroke-width:15;stroke-linecap:round;stroke-linejoin:round;stroke:rgb(0%,0%,0%);stroke-opacity:1;stroke-miterlimit:10;" d="M 0.0260769 0.0183787 L -68.286627 0.0183787 C -69.474131 0.0183787 -70.599134 0.51838 -71.411637 1.330883 L -40.661545 -35.294227 C -39.911542 -36.544231 -38.536538 -37.294233 -37.099034 -37.294233 L -8.098947 -37.294233 L 4.026089 -5.856639 C 5.088592 -3.04413 3.026086 0.0183787 0.0260769 0.0183787 Z M 0.0260769 0.0183787 " transform="matrix(0.0624998,0,0,-0.0624998,12.064776,13.622242)"/>
<path style="fill:none;stroke-width:15;stroke-linecap:round;stroke-linejoin:round;stroke:rgb(0%,0%,0%);stroke-opacity:1;stroke-miterlimit:10;" d="M -0.00472024 -0.000492408 L -47.692363 -0.000492408 C -49.442368 -0.000492408 -51.004873 -1.000495 -51.629875 -2.563 L -140.130139 -204.438603 C -141.380143 -207.251112 -139.317637 -210.438621 -136.192627 -210.438621 L -67.879923 -210.438621 C -64.879914 -210.438621 -62.817408 -213.50113 -63.879911 -216.313639 L -155.505185 -453.876849 C -157.19269 -458.314362 -151.505173 -461.814372 -148.317663 -458.314362 L 72.120495 -217.688643 C 74.620503 -214.938635 72.682997 -210.438621 68.932986 -210.438621 L 4.307793 -210.438621 C 0.995283 -210.438621 -1.067223 -206.876111 0.557781 -204.001102 L 114.120621 -6.438012 C 115.745626 -3.563003 113.683119 -0.000492408 110.37061 -0.000492408 L 34.995384 -0.000492408 " transform="matrix(0.0624998,0,0,-0.0624998,16.308889,0.468719)"/>
<path style="fill:none;stroke-width:15;stroke-linecap:round;stroke-linejoin:round;stroke:rgb(0%,0%,0%);stroke-opacity:1;stroke-miterlimit:10;" d="M -0.0276851 0.0254471 L 91.535088 99.963246 C 93.160093 101.713251 92.972593 104.088258 91.722589 105.650763 L 60.909997 142.213372 C 61.722499 140.713368 61.722499 138.713362 60.347495 137.213357 L -160.090663 -103.412362 C -161.840669 -105.349868 -164.403176 -105.162367 -166.028181 -103.787363 L -134.590587 -141.224975 C -132.965582 -142.412479 -130.590575 -142.537479 -128.84057 -140.662473 L -23.777756 -25.974631 " transform="matrix(0.0624998,0,0,-0.0624998,17.044699,22.650028)"/>
</g>
</svg>
