<?xml version="1.0" encoding="UTF-8"?>
<svg xmlns="http://www.w3.org/2000/svg" xmlns:xlink="http://www.w3.org/1999/xlink" width="64px" height="64px" viewBox="0 0 64 64" version="1.1">
<g id="surface1">
<path style=" stroke:none;fill-rule:nonzero;fill:rgb(88.627451%,87.058824%,88.627451%);fill-opacity:1;" d="M 30.132812 61.355469 L 30.132812 60.480469 L 30.007812 60.105469 L 25.230469 60.105469 L 25.230469 61.769531 L 25.355469 61.980469 L 30.632812 61.980469 L 30.589844 61.851562 C 30.335938 61.832031 30.132812 61.617188 30.132812 61.355469 Z M 56.808594 61.355469 L 56.808594 60.480469 L 56.683594 60.105469 L 35.1875 60.105469 L 35.0625 60.480469 L 35.0625 61.355469 C 35.0625 61.617188 34.859375 61.832031 34.605469 61.851562 L 34.5625 61.980469 L 57.308594 61.980469 L 57.265625 61.851562 C 57.011719 61.832031 56.808594 61.617188 56.808594 61.355469 Z M 56.808594 61.355469 "/>
<path style=" stroke:none;fill-rule:nonzero;fill:rgb(0.784314%,78.039216%,86.666667%);fill-opacity:1;" d="M 12.675781 34.625 C 15.488281 34.625 17.789062 32.324219 17.789062 29.511719 L 17.789062 27.855469 L 7.566406 27.855469 L 7.566406 29.511719 C 7.566406 32.324219 9.863281 34.625 12.675781 34.625 Z M 12.675781 34.625 "/>
<path style=" stroke:none;fill-rule:nonzero;fill:rgb(2.745098%,69.803922%,80.392157%);fill-opacity:1;" d="M 10.683594 29.511719 L 10.683594 27.855469 L 7.566406 27.855469 L 7.566406 29.511719 C 7.566406 32.324219 9.863281 34.625 12.675781 34.625 C 13.152344 34.625 13.625 34.558594 14.082031 34.425781 C 12.097656 33.675781 10.683594 31.757812 10.683594 29.511719 Z M 10.683594 29.511719 "/>
<path style=" stroke:none;fill-rule:nonzero;fill:rgb(95.294118%,94.117647%,95.294118%);fill-opacity:1;" d="M 23.453125 56.863281 L 23.453125 21.636719 C 23.453125 15.683594 18.628906 10.859375 12.675781 10.859375 C 6.726562 10.859375 1.898438 15.683594 1.898438 21.636719 L 1.898438 56.863281 Z M 7.566406 22.050781 C 7.566406 19.238281 9.863281 16.941406 12.675781 16.941406 C 15.488281 16.941406 17.789062 19.238281 17.789062 22.050781 L 17.789062 29.511719 C 17.789062 32.324219 15.488281 34.625 12.675781 34.625 C 9.863281 34.625 7.566406 32.324219 7.566406 29.511719 Z M 7.566406 22.050781 "/>
<path style=" stroke:none;fill-rule:nonzero;fill:rgb(88.627451%,87.058824%,88.627451%);fill-opacity:1;" d="M 14.503906 11.019531 C 13.898438 10.914062 13.289062 10.859375 12.675781 10.859375 C 6.726562 10.859375 1.898438 15.683594 1.898438 21.636719 L 1.898438 56.863281 L 5.550781 56.863281 L 5.550781 21.636719 C 5.550781 16.308594 9.421875 11.886719 14.503906 11.019531 Z M 14.503906 11.019531 "/>
<path style=" stroke:none;fill-rule:nonzero;fill:rgb(79.607843%,76.862745%,80%);fill-opacity:1;" d="M 12.675781 35.5625 C 9.339844 35.5625 6.628906 32.847656 6.628906 29.511719 L 6.628906 22.050781 C 6.628906 18.714844 9.339844 16.003906 12.675781 16.003906 C 16.011719 16.003906 18.726562 18.714844 18.726562 22.050781 L 18.726562 29.511719 C 18.726562 32.847656 16.011719 35.5625 12.675781 35.5625 Z M 12.675781 17.878906 C 10.375 17.878906 8.503906 19.75 8.503906 22.050781 L 8.503906 29.511719 C 8.503906 31.816406 10.375 33.6875 12.675781 33.6875 C 14.980469 33.6875 16.851562 31.816406 16.851562 29.511719 L 16.851562 22.050781 C 16.851562 19.75 14.980469 17.878906 12.675781 17.878906 Z M 12.675781 17.878906 "/>
<path style=" stroke:none;fill-rule:nonzero;fill:rgb(100%,88.235294%,46.666667%);fill-opacity:1;" d="M 18.292969 44.28125 L 7.0625 44.28125 C 6.640625 44.28125 6.300781 43.941406 6.300781 43.519531 L 6.300781 39.269531 C 6.300781 38.851562 6.640625 38.511719 7.0625 38.511719 L 18.292969 38.511719 C 18.710938 38.511719 19.050781 38.851562 19.050781 39.269531 L 19.050781 43.519531 C 19.050781 43.941406 18.710938 44.28125 18.292969 44.28125 Z M 18.292969 44.28125 "/>
<path style=" stroke:none;fill-rule:nonzero;fill:rgb(100%,81.960784%,35.686275%);fill-opacity:1;" d="M 9.855469 43.519531 L 9.855469 39.269531 C 9.855469 38.851562 10.195312 38.511719 10.613281 38.511719 L 7.0625 38.511719 C 6.640625 38.511719 6.300781 38.851562 6.300781 39.269531 L 6.300781 43.519531 C 6.300781 43.941406 6.640625 44.28125 7.0625 44.277344 L 10.613281 44.277344 C 10.195312 44.28125 9.855469 43.941406 9.855469 43.519531 Z M 9.855469 43.519531 "/>
<path style=" stroke:none;fill-rule:nonzero;fill:rgb(0.784314%,78.039216%,86.666667%);fill-opacity:1;" d="M 25.355469 61.980469 L 0.691406 61.980469 C 0.308594 61.980469 0 61.671875 0 61.292969 L 0 57.421875 C 0 57.042969 0.308594 56.730469 0.691406 56.730469 L 24.664062 56.730469 C 25.042969 56.730469 25.355469 57.042969 25.355469 57.421875 Z M 25.355469 61.980469 "/>
<path style=" stroke:none;fill-rule:nonzero;fill:rgb(2.745098%,69.803922%,80.392157%);fill-opacity:1;" d="M 5.472656 61.292969 L 5.472656 57.421875 C 5.472656 57.042969 5.78125 56.730469 6.164062 56.730469 L 0.691406 56.730469 C 0.308594 56.730469 0 57.042969 0 57.421875 L 0 61.292969 C 0 61.671875 0.308594 61.980469 0.691406 61.980469 L 6.164062 61.980469 C 5.78125 61.980469 5.472656 61.671875 5.472656 61.292969 Z M 5.472656 61.292969 "/>
<path style=" stroke:none;fill-rule:nonzero;fill:rgb(0.784314%,78.039216%,86.666667%);fill-opacity:1;" d="M 11.019531 48.550781 L 6.875 48.550781 C 6.355469 48.550781 5.9375 48.128906 5.9375 47.613281 C 5.9375 47.09375 6.355469 46.675781 6.875 46.675781 L 11.019531 46.675781 C 11.535156 46.675781 11.957031 47.09375 11.957031 47.613281 C 11.957031 48.128906 11.535156 48.550781 11.019531 48.550781 Z M 18.480469 48.550781 L 18.203125 48.550781 C 17.6875 48.550781 17.265625 48.128906 17.265625 47.613281 C 17.265625 47.09375 17.6875 46.675781 18.203125 46.675781 L 18.480469 46.675781 C 18.996094 46.675781 19.417969 47.09375 19.417969 47.613281 C 19.417969 48.128906 18.996094 48.550781 18.480469 48.550781 Z M 15.40625 48.550781 L 15.128906 48.550781 C 14.613281 48.550781 14.191406 48.128906 14.191406 47.613281 C 14.191406 47.09375 14.613281 46.675781 15.128906 46.675781 L 15.40625 46.675781 C 15.921875 46.675781 16.34375 47.09375 16.34375 47.613281 C 16.34375 48.128906 15.921875 48.550781 15.40625 48.550781 Z M 15.40625 48.550781 "/>
<path style=" stroke:none;fill-rule:nonzero;fill:rgb(2.745098%,69.803922%,80.392157%);fill-opacity:1;" d="M 61.796875 39.507812 L 60.273438 39.507812 C 59.582031 39.507812 58.910156 39.746094 58.375 40.179688 L 58.273438 40.304688 L 59.25 43.480469 L 59.3125 43.507812 C 59.574219 43.625 59.828125 43.757812 60.074219 43.910156 L 61.796875 43.910156 C 63.015625 43.910156 64 42.925781 64 41.707031 C 64 40.492188 63.015625 39.507812 61.796875 39.507812 Z M 31.800781 43.910156 C 32.042969 43.757812 32.296875 43.625 32.558594 43.507812 L 32.621094 43.480469 L 33.578125 40.359375 L 33.496094 40.179688 C 32.960938 39.746094 32.289062 39.507812 31.601562 39.507812 L 30.074219 39.507812 C 28.855469 39.507812 27.871094 40.492188 27.871094 41.707031 C 27.871094 42.925781 28.855469 43.910156 30.074219 43.910156 Z M 31.800781 43.910156 "/>
<path style=" stroke:none;fill-rule:nonzero;fill:rgb(0.392157%,50.980392%,98.823529%);fill-opacity:1;" d="M 53 34.210938 L 38.871094 34.210938 C 36.757812 34.210938 34.894531 35.589844 34.273438 37.609375 L 32.453125 43.535156 C 33.222656 43.179688 34.058594 42.996094 34.902344 42.996094 L 56.96875 42.996094 C 57.8125 42.996094 58.648438 43.179688 59.417969 43.535156 L 57.597656 37.609375 C 56.976562 35.589844 55.113281 34.210938 53 34.210938 Z M 53 34.210938 "/>
<path style=" stroke:none;fill-rule:nonzero;fill:rgb(0.392157%,44.705882%,98.431373%);fill-opacity:1;" d="M 38.457031 37.609375 C 39.078125 35.589844 40.941406 34.210938 43.054688 34.210938 L 38.871094 34.210938 C 36.757812 34.210938 34.894531 35.589844 34.273438 37.609375 L 32.453125 43.535156 C 33.222656 43.179688 34.058594 42.996094 34.902344 42.996094 L 36.800781 42.996094 Z M 38.457031 37.609375 "/>
<path style=" stroke:none;fill-rule:nonzero;fill:rgb(0.784314%,78.039216%,86.666667%);fill-opacity:1;" d="M 33.550781 43.15625 L 35.171875 37.882812 C 35.671875 36.246094 37.160156 35.148438 38.871094 35.148438 L 53 35.148438 C 54.710938 35.148438 56.199219 36.246094 56.703125 37.882812 L 58.320312 43.15625 C 59.113281 43.34375 59.855469 43.691406 60.5 44.183594 L 60.589844 44.15625 L 58.492188 37.332031 C 57.746094 34.90625 55.539062 33.273438 53 33.273438 L 38.871094 33.273438 C 36.332031 33.273438 34.125 34.90625 33.378906 37.332031 L 31.28125 44.15625 L 31.371094 44.183594 C 32.019531 43.691406 32.761719 43.34375 33.550781 43.15625 Z M 33.550781 43.15625 "/>
<path style=" stroke:none;fill-rule:nonzero;fill:rgb(40.784314%,36.862745%,40.784314%);fill-opacity:1;" d="M 30.851562 56.605469 C 30.546875 56.605469 30.261719 56.53125 30.007812 56.398438 L 30.007812 61.355469 C 30.007812 61.703125 30.289062 61.980469 30.632812 61.980469 L 34.5625 61.980469 C 34.90625 61.980469 35.1875 61.703125 35.1875 61.355469 L 35.1875 56.605469 Z M 30.851562 56.605469 "/>
<path style=" stroke:none;fill-rule:nonzero;fill:rgb(33.333333%,30.588235%,33.72549%);fill-opacity:1;" d="M 30.851562 56.605469 C 30.546875 56.605469 30.261719 56.53125 30.007812 56.398438 L 30.007812 61.355469 C 30.007812 61.703125 30.289062 61.980469 30.632812 61.980469 L 32.515625 61.980469 L 32.515625 56.605469 Z M 30.851562 56.605469 "/>
<path style=" stroke:none;fill-rule:nonzero;fill:rgb(40.784314%,36.862745%,40.784314%);fill-opacity:1;" d="M 61.023438 56.605469 L 56.683594 56.605469 L 56.683594 61.355469 C 56.683594 61.703125 56.964844 61.980469 57.308594 61.980469 L 61.238281 61.980469 C 61.582031 61.980469 61.863281 61.703125 61.863281 61.355469 L 61.863281 56.398438 C 61.605469 56.535156 61.316406 56.605469 61.023438 56.605469 Z M 61.023438 56.605469 "/>
<path style=" stroke:none;fill-rule:nonzero;fill:rgb(33.333333%,30.588235%,33.72549%);fill-opacity:1;" d="M 56.683594 56.605469 L 56.683594 61.355469 C 56.683594 61.703125 56.964844 61.980469 57.308594 61.980469 L 59.042969 61.980469 L 59.042969 56.605469 Z M 56.683594 56.605469 "/>
<path style=" stroke:none;fill-rule:nonzero;fill:rgb(0.784314%,78.039216%,86.666667%);fill-opacity:1;" d="M 57.585938 52.589844 L 57.585938 50.941406 C 57.585938 48.382812 59.203125 46.160156 61.621094 45.367188 L 61.710938 45.207031 C 60.613281 43.789062 58.898438 42.875 56.96875 42.875 L 34.902344 42.875 C 32.972656 42.875 31.257812 43.789062 30.164062 45.207031 L 30.25 45.367188 C 32.671875 46.160156 34.285156 48.382812 34.285156 50.941406 L 34.285156 52.589844 L 34.273438 52.589844 L 34.410156 52.839844 L 36.347656 52.839844 C 37.097656 52.839844 37.8125 52.476562 38.257812 51.867188 C 38.582031 51.421875 39.101562 51.15625 39.652344 51.15625 L 52.214844 51.15625 C 52.765625 51.15625 53.285156 51.421875 53.609375 51.867188 C 54.054688 52.476562 54.765625 52.835938 55.519531 52.839844 L 57.460938 52.839844 L 57.597656 52.589844 Z M 57.585938 52.589844 "/>
<path style=" stroke:none;fill-rule:nonzero;fill:rgb(2.745098%,69.803922%,80.392157%);fill-opacity:1;" d="M 34.902344 42.875 C 32.972656 42.875 31.257812 43.789062 30.160156 45.203125 C 32.292969 45.851562 33.921875 47.65625 34.316406 49.890625 L 34.316406 48.871094 C 34.316406 45.558594 37.003906 42.875 40.3125 42.875 Z M 34.902344 42.875 "/>
<path style=" stroke:none;fill-rule:nonzero;fill:rgb(100%,94.117647%,67.843137%);fill-opacity:1;" d="M 28.90625 52.714844 L 28.90625 48.871094 C 28.90625 47.488281 29.375 46.21875 30.160156 45.203125 C 32.621094 45.953125 34.410156 48.238281 34.410156 50.941406 L 34.410156 52.714844 Z M 28.90625 52.714844 "/>
<path style=" stroke:none;fill-rule:nonzero;fill:rgb(100%,88.235294%,46.666667%);fill-opacity:1;" d="M 62.964844 52.714844 L 62.964844 48.871094 C 62.964844 47.488281 62.496094 46.21875 61.710938 45.203125 C 59.25 45.953125 57.460938 48.238281 57.460938 50.941406 L 57.460938 52.714844 Z M 62.964844 52.714844 "/>
<path style=" stroke:none;fill-rule:nonzero;fill:rgb(100%,94.117647%,67.843137%);fill-opacity:1;" d="M 28.90625 52.714844 L 28.90625 48.871094 C 28.90625 47.488281 29.375 46.21875 30.160156 45.203125 C 32.621094 45.953125 34.410156 48.238281 34.410156 50.941406 L 34.410156 52.714844 Z M 28.90625 52.714844 "/>
<path style=" stroke:none;fill-rule:nonzero;fill:rgb(88.627451%,87.058824%,88.627451%);fill-opacity:1;" d="M 55.519531 52.714844 C 54.804688 52.714844 54.128906 52.371094 53.707031 51.792969 C 53.359375 51.316406 52.804688 51.03125 52.214844 51.03125 L 39.652344 51.03125 C 39.0625 51.03125 38.503906 51.316406 38.15625 51.792969 C 37.734375 52.371094 37.0625 52.714844 36.347656 52.714844 L 28.90625 52.714844 L 28.90625 54.789062 C 28.90625 55.859375 29.777344 56.730469 30.851562 56.730469 L 61.023438 56.730469 C 62.09375 56.730469 62.964844 55.859375 62.964844 54.789062 L 62.964844 52.714844 Z M 55.519531 52.714844 "/>
<path style=" stroke:none;fill-rule:nonzero;fill:rgb(79.607843%,76.862745%,80%);fill-opacity:1;" d="M 34.316406 54.789062 L 34.316406 52.714844 L 28.90625 52.714844 L 28.90625 54.789062 C 28.90625 55.859375 29.777344 56.730469 30.851562 56.730469 L 36.261719 56.730469 C 35.1875 56.730469 34.316406 55.859375 34.316406 54.789062 Z M 34.316406 54.789062 "/>
<path style=" stroke:none;fill-rule:nonzero;fill:rgb(99.215686%,27.843137%,33.333333%);fill-opacity:1;" d="M 45.9375 37.386719 L 56.441406 21.679688 C 62.058594 13.285156 56.039062 2.019531 45.9375 2.019531 C 35.832031 2.019531 29.8125 13.285156 35.429688 21.679688 Z M 45.9375 37.386719 "/>
<path style=" stroke:none;fill-rule:nonzero;fill:rgb(98.431373%,16.862745%,22.745098%);fill-opacity:1;" d="M 41.222656 20.734375 C 39.382812 19.316406 38.199219 17.097656 38.199219 14.597656 C 38.199219 12.042969 39.433594 9.78125 41.339844 8.371094 C 42.976562 5.515625 45.703125 3.28125 49.121094 2.410156 C 48.117188 2.15625 47.050781 2.019531 45.9375 2.019531 C 35.832031 2.019531 29.8125 13.285156 35.429688 21.679688 L 45.9375 37.386719 L 49.121094 32.625 L 41.800781 21.679688 C 41.59375 21.375 41.402344 21.058594 41.222656 20.734375 Z M 41.222656 20.734375 "/>
<path style=" stroke:none;fill-rule:nonzero;fill:rgb(100%,88.235294%,46.666667%);fill-opacity:1;" d="M 51.402344 9.128906 C 54.421875 12.152344 54.421875 17.050781 51.402344 20.070312 C 48.378906 23.09375 43.480469 23.09375 40.457031 20.070312 C 37.4375 17.050781 37.4375 12.152344 40.457031 9.128906 C 43.480469 6.109375 48.378906 6.109375 51.402344 9.128906 Z M 51.402344 9.128906 "/>
<path style=" stroke:none;fill-rule:nonzero;fill:rgb(100%,81.960784%,35.686275%);fill-opacity:1;" d="M 42.558594 14.597656 C 42.558594 11.082031 44.90625 8.117188 48.117188 7.171875 C 47.40625 6.964844 46.671875 6.859375 45.9375 6.859375 C 41.664062 6.859375 38.199219 10.324219 38.199219 14.597656 C 38.199219 18.871094 41.664062 22.335938 45.9375 22.335938 C 46.691406 22.335938 47.425781 22.222656 48.117188 22.019531 C 44.90625 21.078125 42.558594 18.113281 42.558594 14.597656 Z M 42.558594 14.597656 "/>
<path style=" stroke:none;fill-rule:nonzero;fill:rgb(99.215686%,50.196078%,52.941176%);fill-opacity:1;" d="M 45.9375 23.273438 C 41.152344 23.273438 37.261719 19.378906 37.261719 14.597656 C 37.261719 9.8125 41.152344 5.921875 45.9375 5.921875 C 50.71875 5.921875 54.609375 9.8125 54.609375 14.597656 C 54.609375 19.378906 50.71875 23.273438 45.9375 23.273438 Z M 45.9375 7.796875 C 42.1875 7.796875 39.136719 10.847656 39.136719 14.597656 C 39.136719 18.347656 42.1875 21.398438 45.9375 21.398438 C 49.683594 21.398438 52.734375 18.347656 52.734375 14.597656 C 52.734375 10.847656 49.683594 7.796875 45.9375 7.796875 Z M 45.9375 7.796875 "/>
<path style=" stroke:none;fill-rule:nonzero;fill:rgb(100%,100%,100%);fill-opacity:1;" d="M 44.835938 19.832031 C 44.488281 19.832031 44.167969 19.640625 44.007812 19.332031 C 43.847656 19.023438 43.867188 18.648438 44.066406 18.363281 L 46.027344 15.535156 L 44.054688 15.535156 C 43.707031 15.535156 43.386719 15.339844 43.222656 15.03125 C 43.0625 14.722656 43.085938 14.351562 43.285156 14.0625 L 46.261719 9.765625 C 46.558594 9.339844 47.140625 9.234375 47.566406 9.527344 C 47.992188 9.824219 48.097656 10.40625 47.804688 10.832031 L 45.84375 13.660156 L 47.816406 13.660156 C 48.164062 13.660156 48.484375 13.851562 48.648438 14.164062 C 48.808594 14.472656 48.785156 14.84375 48.585938 15.132812 L 45.609375 19.429688 C 45.433594 19.683594 45.144531 19.832031 44.835938 19.832031 Z M 44.835938 19.832031 "/>
<path style=" stroke:none;fill-rule:nonzero;fill:rgb(100%,88.235294%,46.666667%);fill-opacity:1;" d="M 28.90625 52.714844 L 28.90625 48.871094 C 28.90625 47.488281 29.375 46.21875 30.160156 45.203125 C 32.621094 45.953125 34.410156 48.238281 34.410156 50.941406 L 34.410156 52.714844 Z M 28.90625 52.714844 "/>
</g>
</svg>
