<svg xmlns="http://www.w3.org/2000/svg" version="1.1" xmlns:xlink="http://www.w3.org/1999/xlink" xmlns:svgjs="http://svgjs.com/svgjs" width="512" height="512" x="0" y="0" viewBox="0 0 512 512" style="enable-background:new 0 0 512 512" xml:space="preserve" class=""><g><g fill="#e2dee2"><path d="M241.065 490.858v-7l-1-3H201.83v13.301l1 1.699h42.236l-.345-1.035c-2.043-.178-3.656-1.877-3.656-3.965zM454.469 490.858v-7l-1-3H281.503l-1 3v7c0 2.088-1.613 3.787-3.655 3.965l-.345 1.035h181.966l-.345-1.035c-2.042-.177-3.655-1.877-3.655-3.965z" fill="#e2dee2" data-original="#e2dee2"></path></g><path fill="#02c7dd" d="M101.415 277.001c22.494 0 40.898-18.404 40.898-40.898V222.84H60.517v13.264c0 22.494 18.404 40.897 40.898 40.897z" data-original="#02c7dd"></path><path fill="#07b2cd" d="M85.459 236.104V222.84H60.517v13.264c0 22.494 18.404 40.898 40.898 40.898a40.54 40.54 0 0 0 11.256-1.598c-15.882-5.997-27.212-21.345-27.212-39.3z" data-original="#07b2cd"></path><path fill="#f3f0f3" d="M187.631 454.921V173.099c0-47.616-38.6-86.216-86.216-86.216-47.616 0-86.216 38.6-86.216 86.216v281.822zM60.517 176.415c0-22.494 18.404-40.898 40.898-40.898 22.494 0 40.897 18.404 40.897 40.898v59.688c0 22.494-18.404 40.898-40.897 40.898-22.494 0-40.898-18.404-40.898-40.898z" data-original="#f3f0f3"></path><path fill="#e2dee2" d="M116.026 88.141a86.747 86.747 0 0 0-14.611-1.258c-47.616 0-86.216 38.6-86.216 86.216v281.822H44.42V173.099c0-42.633 30.952-78.015 71.606-84.958z" data-original="#e2dee2"></path><path fill="#cbc4cc" d="M101.415 284.501c-26.687 0-48.397-21.711-48.397-48.397v-59.688c0-26.687 21.711-48.397 48.397-48.397s48.397 21.711 48.397 48.397v59.688c0 26.686-21.71 48.397-48.397 48.397zm0-141.483C83 143.018 68.018 158 68.018 176.415v59.688c0 18.415 14.982 33.397 33.397 33.397s33.397-14.982 33.397-33.397v-59.688c0-18.415-14.981-33.397-33.397-33.397z" data-original="#cbc4cc"></path><path fill="#ffe177" d="M146.343 354.235H56.486a6.07 6.07 0 0 1-6.071-6.071v-34a6.07 6.07 0 0 1 6.071-6.071h89.857a6.07 6.07 0 0 1 6.071 6.071v34a6.07 6.07 0 0 1-6.071 6.071z" data-original="#ffe177"></path><path fill="#ffd15b" d="M78.844 348.163v-34a6.072 6.072 0 0 1 6.071-6.072H56.486a6.071 6.071 0 0 0-6.071 6.072v34a6.07 6.07 0 0 0 6.071 6.071h28.429a6.07 6.07 0 0 1-6.071-6.071z" data-original="#ffd15b"></path><path fill="#02c7dd" d="M202.83 495.859H5.527A5.527 5.527 0 0 1 0 490.332v-30.949a5.527 5.527 0 0 1 5.527-5.527h191.776a5.527 5.527 0 0 1 5.527 5.527z" data-original="#02c7dd"></path><path fill="#07b2cd" d="M43.783 490.332v-30.95a5.527 5.527 0 0 1 5.527-5.527H5.527A5.528 5.528 0 0 0 0 459.382v30.95a5.527 5.527 0 0 0 5.527 5.527H49.31a5.527 5.527 0 0 1-5.527-5.527z" data-original="#07b2cd"></path><path fill="#02c7dd" d="M88.151 388.403h-33.16c-4.142 0-7.5-3.357-7.5-7.5s3.358-7.5 7.5-7.5h33.16c4.142 0 7.5 3.357 7.5 7.5s-3.358 7.5-7.5 7.5zM147.839 388.403h-2.211c-4.142 0-7.5-3.357-7.5-7.5s3.358-7.5 7.5-7.5h2.211c4.142 0 7.5 3.357 7.5 7.5s-3.358 7.5-7.5 7.5zM123.245 388.403h-2.21c-4.142 0-7.5-3.357-7.5-7.5s3.358-7.5 7.5-7.5h2.21c4.142 0 7.5 3.357 7.5 7.5s-3.358 7.5-7.5 7.5z" data-original="#02c7dd"></path><path fill="#07b2cd" d="M494.389 316.059h-12.214a23.942 23.942 0 0 0-15.167 5.39l-.809.986 7.808 25.418.485.213a47.066 47.066 0 0 1 6.087 3.215h13.81c9.726 0 17.611-7.885 17.611-17.611s-7.885-17.611-17.611-17.611zM254.393 351.281a47.066 47.066 0 0 1 6.087-3.215l.485-.213 7.669-24.966-.669-1.438a23.942 23.942 0 0 0-15.167-5.39h-12.214c-9.726 0-17.611 7.885-17.611 17.611s7.885 17.611 17.611 17.611z" data-original="#07b2cd"></path><path fill="#0182fc" d="M424.004 273.685H310.969c-16.897 0-31.816 11.024-36.778 27.176l-14.566 47.419a46.686 46.686 0 0 1 19.604-4.302h176.514a46.682 46.682 0 0 1 19.604 4.302l-14.566-47.419c-4.961-16.151-19.88-27.176-36.777-27.176z" data-original="#0182fc"></path><path fill="#0172fb" d="M307.653 300.862c4.962-16.152 19.881-27.176 36.778-27.176h-33.462c-16.897 0-31.816 11.024-36.778 27.176l-14.566 47.419a46.686 46.686 0 0 1 19.604-4.302h15.179z" data-original="#0172fb"></path><path fill="#02c7dd" d="m268.402 345.25 12.959-42.187c4.02-13.086 15.918-21.878 29.608-21.878h113.035c13.689 0 25.588 8.792 29.608 21.878l12.959 42.186a46.38 46.38 0 0 1 17.428 8.219l.721-.221-16.769-54.588c-5.967-19.424-23.627-32.474-43.947-32.474H310.969c-20.32 0-37.98 13.05-43.947 32.474l-16.769 54.589.72.221a46.393 46.393 0 0 1 17.429-8.219z" data-original="#02c7dd"></path><path fill="#685e68" d="M246.799 452.853c-2.43 0-4.718-.607-6.734-1.664v39.669a5 5 0 0 0 5 5h31.438a5 5 0 0 0 5-5v-38.005z" data-original="#685e68"></path><path fill="#554e56" d="M246.799 452.853c-2.43 0-4.718-.606-6.734-1.664v39.669a5 5 0 0 0 5 5h15.055v-43.006h-13.321z" data-original="#554e56"></path><path fill="#685e68" d="M488.174 452.853H453.47v38.005a5 5 0 0 0 5 5h31.438a5 5 0 0 0 5-5V451.19a14.464 14.464 0 0 1-6.734 1.663z" data-original="#685e68"></path><path fill="#554e56" d="M453.469 452.853v38.006a5 5 0 0 0 5 5h13.869v-43.006z" data-original="#554e56"></path><path fill="#02c7dd" d="M460.685 420.725v-13.188c0-20.471 12.927-38.262 32.276-44.612l.713-1.28c-8.773-11.335-22.487-18.652-37.93-18.652H279.229c-15.443 0-29.157 7.316-37.93 18.652l.713 1.28c19.35 6.35 32.276 24.141 32.276 44.612v13.188h-.105l1.105 1.986h15.482c6.026 0 11.74-2.91 15.284-7.783a13.844 13.844 0 0 1 11.163-5.683H417.71c4.401 0 8.574 2.125 11.163 5.683a18.954 18.954 0 0 0 15.284 7.783h15.529l1.105-1.986z" data-original="#02c7dd"></path><path fill="#07b2cd" d="M279.229 342.993c-15.445 0-29.176 7.308-37.95 18.646 17.068 5.185 30.101 19.626 33.264 37.479v-8.156c0-26.493 21.477-47.969 47.969-47.969z" data-original="#07b2cd"></path><path fill="#fff0ad" d="M231.26 421.725v-30.763c0-11.047 3.744-21.214 10.019-29.323 19.682 5.979 34.008 24.263 34.008 45.899v14.187z" data-original="#fff0ad"></path><path fill="#ffe177" d="M503.713 421.725v-30.763c0-11.047-3.744-21.214-10.019-29.323-19.682 5.979-34.008 24.263-34.008 45.899v14.187z" data-original="#ffe177"></path><path fill="#fff0ad" d="M231.26 421.725v-30.763c0-11.047 3.744-21.214 10.019-29.323 19.682 5.979 34.008 24.263 34.008 45.899v14.187z" data-original="#fff0ad"></path><path fill="#e2dee2" d="M444.156 421.725a17.91 17.91 0 0 1-14.486-7.377 14.79 14.79 0 0 0-11.96-6.09H317.216a14.789 14.789 0 0 0-11.96 6.09 17.911 17.911 0 0 1-14.486 7.377h-59.51V438.3c0 8.582 6.957 15.539 15.539 15.539h241.374c8.582 0 15.539-6.957 15.539-15.539v-16.575z" data-original="#e2dee2"></path><path fill="#cbc4cc" d="M274.543 438.3v-16.575H231.26V438.3c0 8.582 6.957 15.539 15.539 15.539h43.283c-8.582 0-15.539-6.957-15.539-15.539z" data-original="#cbc4cc"></path><path fill="#fd4755" d="m367.486 299.108 84.04-125.655c44.931-67.179-3.221-157.312-84.04-157.312-80.82 0-128.971 90.133-84.04 157.312z" data-original="#fd4755"></path><path fill="#fb2b3a" d="M329.79 165.861c-14.712-11.316-24.203-29.086-24.203-49.082 0-20.421 9.893-38.526 25.143-49.801 13.074-22.85 34.886-40.741 62.239-47.692-8.043-2.044-16.563-3.145-25.483-3.145-80.82 0-128.971 90.133-84.04 157.312l84.04 125.655 25.483-38.101-58.558-87.554a106.222 106.222 0 0 1-4.621-7.592z" data-original="#fb2b3a"></path><circle cx="367.486" cy="116.778" r="61.899" fill="#ffe177" transform="rotate(-45 367.493 116.854)" data-original="#ffe177"></circle><path fill="#ffd15b" d="M340.475 116.778c0-28.126 18.766-51.855 44.455-59.389a61.886 61.886 0 0 0-17.444-2.509c-34.186 0-61.899 27.713-61.899 61.899s27.713 61.899 61.899 61.899c6.06 0 11.909-.886 17.444-2.509-25.689-7.535-44.455-31.264-44.455-59.391z" data-original="#ffd15b"></path><path fill="#fd8087" d="M367.486 186.178c-38.267 0-69.399-31.133-69.399-69.399s31.132-69.399 69.399-69.399 69.399 31.133 69.399 69.399-31.132 69.399-69.399 69.399zm0-123.799c-29.996 0-54.399 24.403-54.399 54.399s24.403 54.399 54.399 54.399 54.399-24.403 54.399-54.399-24.403-54.399-54.399-54.399z" data-original="#fd8087"></path><path fill="#ffffff" d="M358.7 158.668a7.5 7.5 0 0 1-6.158-11.773l15.669-22.617h-15.77a7.5 7.5 0 0 1-6.165-11.772L370.1 78.117a7.5 7.5 0 0 1 12.33 8.543l-15.669 22.617h15.77a7.5 7.5 0 0 1 6.165 11.772l-23.824 34.389a7.491 7.491 0 0 1-6.172 3.23z" data-original="#ffffff"></path><path fill="#ffe177" d="M231.26 421.725v-30.763c0-11.047 3.744-21.214 10.019-29.323 19.682 5.979 34.008 24.263 34.008 45.899v14.187z" data-original="#ffe177"></path></g></svg>