<svg xmlns="http://www.w3.org/2000/svg" width="155.462" height="177.319" viewBox="0 0 155.462 177.319">
  <g id="fast-charger-icon-vector" transform="translate(-100 -78.91)">
    <path id="Path_210718" data-name="Path 210718" d="M201.95,229.739c-.005-.047-.005-.093-.01-.14s-.016-.114-.026-.171-.021-.114-.031-.166a.945.945,0,0,0-.036-.13c-.016-.062-.031-.13-.052-.192a.931.931,0,0,0-.041-.109c-.026-.067-.047-.135-.078-.2-.016-.036-.036-.073-.052-.114-.031-.057-.057-.119-.088-.176s-.057-.093-.083-.135-.057-.093-.083-.135-.078-.1-.119-.155c-.026-.031-.052-.067-.078-.1-.047-.052-.093-.1-.145-.155-.026-.026-.052-.057-.078-.083-.047-.047-.1-.088-.15-.135-.036-.031-.067-.062-.1-.088s-.093-.067-.14-.1-.093-.067-.14-.1l-.119-.073c-.057-.036-.119-.067-.181-.1-.016-.005-.026-.016-.041-.021s-.052-.021-.073-.031c-.062-.031-.13-.057-.2-.088l-.13-.047c-.062-.021-.119-.041-.181-.057s-.1-.026-.161-.041-.1-.026-.155-.036l-.192-.031-.135-.016c-.073-.005-.145-.01-.212-.01-.026,0-.052-.005-.083-.005H185.932l6.6-13.2a3.4,3.4,0,0,0-6.078-3.042l-9.063,18.121c-.01.026-.021.052-.031.073-.031.062-.057.13-.088.2-.016.041-.031.088-.047.13-.021.062-.041.119-.057.181s-.026.1-.041.161-.026.1-.036.155-.021.13-.031.192c-.005.047-.01.088-.016.135-.005.073-.01.145-.01.218,0,.026-.005.052-.005.078v.041c0,.067.005.14.01.207.005.047.005.093.01.14s.016.114.026.171.021.114.031.166.021.088.031.13c.016.067.031.13.052.192a.935.935,0,0,0,.041.109c.026.067.047.135.078.2.016.036.036.073.052.109.031.062.057.119.088.176s.057.088.083.135a1.207,1.207,0,0,0,.088.135c.036.052.078.1.119.155.026.031.052.067.078.1l.14.155c.026.026.052.057.078.083.047.047.1.088.15.135.036.031.067.062.1.088s.093.067.14.1.093.067.14.1l.119.073c.057.036.119.067.181.1.016.005.026.016.041.021s.041.016.062.026c.083.041.166.073.249.109.036.016.073.026.114.041.078.026.161.052.238.073l.13.031c.073.016.15.026.228.041.047.005.093.016.14.021a1.6,1.6,0,0,0,.223.01c.047,0,.088.005.135.005h12.628l-6.6,13.2a3.4,3.4,0,1,0,6.078,3.037l9.063-18.121c.01-.026.021-.052.031-.073.031-.062.057-.13.088-.2.016-.041.031-.088.047-.13.021-.062.041-.119.057-.181s.026-.1.041-.161.026-.1.036-.161.021-.13.031-.192c.005-.047.01-.088.016-.135.005-.073.01-.145.01-.218,0-.026.005-.052.005-.078v-.041C201.955,229.879,201.955,229.812,201.95,229.739Z" transform="translate(-37.114 -62.426)" fill="#9ccdfb"/>
    <path id="Path_210719" data-name="Path 210719" d="M252.166,118.194,237.776,101.3l-.047-.047a1.594,1.594,0,0,0-.13-.135c-.036-.036-.073-.073-.114-.109s-.093-.083-.14-.119-.083-.067-.124-.1a1.427,1.427,0,0,0-.145-.1c-.047-.031-.088-.062-.135-.088a1.316,1.316,0,0,0-.145-.083l-.15-.078c-.047-.021-.093-.041-.145-.062a1.477,1.477,0,0,0-.161-.062l-.145-.047c-.057-.016-.109-.036-.166-.047s-.1-.026-.15-.036l-.166-.031c-.052-.01-.1-.016-.155-.021l-.166-.016c-.057-.005-.109-.005-.166-.005h-.161c-.057,0-.109.005-.166.01l-.161.016c-.057.005-.109.016-.166.026l-.161.031c-.052.01-.1.026-.155.041l-.161.047c-.052.016-.1.036-.15.057s-.109.041-.166.067-.093.047-.14.067-.109.057-.166.088a1.1,1.1,0,0,0-.13.083c-.052.031-.1.067-.155.1a.214.214,0,0,1-.057.036l-1.067.8-3.9-4.581a3.4,3.4,0,1,0-5.172,4.4l3.633,4.265-9.042,6.8-3.9-4.581a3.4,3.4,0,1,0-5.172,4.4l3.633,4.265-.731.549a3.39,3.39,0,0,0-.9,1.01,3.444,3.444,0,0,0-.456,1.555,3.368,3.368,0,0,0,.679,2.192h0l10.737,14.292v16.986a3.405,3.405,0,0,0,.171,1.062,12.445,12.445,0,0,0,12.038,11.53h.109a3.215,3.215,0,0,0,.953-.14h.316V234.7a5.668,5.668,0,0,1-5.664,5.664h-9.063a5.668,5.668,0,0,1-5.664-5.664V198.456A12.472,12.472,0,0,0,202.213,186H192.03V86.838A7.935,7.935,0,0,0,184.1,78.91H120.676a7.935,7.935,0,0,0-7.928,7.928V248.3a8.239,8.239,0,0,0,.083,1.135H103.4a3.4,3.4,0,1,0,0,6.8h90.828a3.4,3.4,0,1,0,0-6.8h-2.275a8.12,8.12,0,0,0,.083-1.135V192.8h10.193a5.668,5.668,0,0,1,5.664,5.664V234.7a12.472,12.472,0,0,0,12.457,12.457h9.063A12.472,12.472,0,0,0,241.87,234.7v-69.09H243a12.472,12.472,0,0,0,12.457-12.457V127.138A13.857,13.857,0,0,0,252.166,118.194ZM185.232,248.3a1.135,1.135,0,0,1-1.135,1.135H120.676a1.135,1.135,0,0,1-1.135-1.135V86.838a1.135,1.135,0,0,1,1.135-1.135H184.1a1.138,1.138,0,0,1,1.135,1.135V248.3Zm63.431-95.139A5.668,5.668,0,0,1,243,158.82h-9.063a3.205,3.205,0,0,0-.71.078,5.651,5.651,0,0,1-4.814-5.773,3.485,3.485,0,0,0-.14-1.073V135.035a3.378,3.378,0,0,0-.979-2.384,4.05,4.05,0,0,0-.238-.368l-8.845-11.773,16.458-12.369L246.984,122.6a7,7,0,0,1,1.669,4.534v26.018Z" fill="#9ccdfb"/>
  </g>
</svg>
