<svg xmlns="http://www.w3.org/2000/svg" width="132.103" height="153.451" viewBox="0 0 132.103 153.451">
  <g id="home-charger-icon-vector" transform="translate(-99.985 -75.755)">
    <path id="Path_210715" data-name="Path 210715" d="M233.5,217.459H233v-9.634a2.545,2.545,0,1,0-5.09,0v9.634h-7.089v-9.634a2.545,2.545,0,1,0-5.09,0v9.634h-.5A2.546,2.546,0,0,0,212.679,220v12.175a8.639,8.639,0,0,0,8.63,8.63h.5v46.159a3.548,3.548,0,0,1-3.545,3.545h-6.09a3.548,3.548,0,0,1-3.545-3.545v-24.35a8.639,8.639,0,0,0-8.63-8.63h-6.587V210.872a5.592,5.592,0,0,0-5.588-5.588H145.213a5.593,5.593,0,0,0-5.588,5.588v85.233c0,.167.009.335.022.5h-3.972a2.545,2.545,0,1,0,0,5.09H196.7a2.545,2.545,0,1,0,0-5.09h-3.311c.013-.163.022-.33.022-.5V259.079H200a3.548,3.548,0,0,1,3.545,3.545v24.354a8.639,8.639,0,0,0,8.63,8.63h6.09a8.639,8.639,0,0,0,8.63-8.63V240.814h.5a8.639,8.639,0,0,0,8.63-8.63V220.009A2.521,2.521,0,0,0,233.5,217.459ZM145.221,296.6a.5.5,0,0,1-.5-.5V210.872a.5.5,0,0,1,.5-.5h42.614a.5.5,0,0,1,.5.5v85.233a.5.5,0,0,1-.5.5H145.221Zm82.186-60.879h-6.09a3.548,3.548,0,0,1-3.545-3.545v-9.63h13.174v9.634A3.54,3.54,0,0,1,227.408,235.724Z" transform="translate(-18.55 -72.492)" fill="#9ccdfb"/>
    <path id="Path_210716" data-name="Path 210716" d="M206.5,296.884a1.24,1.24,0,0,0,.044-.136,1.185,1.185,0,0,0,.031-.119l.026-.119c.009-.048.018-.1.022-.145s.009-.066.013-.1c0-.053.009-.106.009-.163,0-.022,0-.04,0-.062v-.031c0-.053,0-.106-.009-.154s0-.07-.009-.106-.013-.084-.018-.128-.013-.084-.022-.123-.018-.066-.026-.1l-.04-.145a.59.59,0,0,0-.031-.079c-.018-.048-.035-.1-.057-.15-.013-.026-.026-.057-.04-.084l-.066-.132c-.018-.035-.04-.066-.062-.1a.8.8,0,0,0-.066-.1c-.026-.04-.057-.079-.088-.119s-.04-.048-.057-.075l-.106-.119c-.022-.022-.04-.044-.057-.062-.035-.035-.075-.066-.11-.1s-.048-.044-.075-.066-.066-.053-.1-.075-.07-.048-.106-.075-.062-.035-.088-.053a1.361,1.361,0,0,0-.137-.075.191.191,0,0,0-.031-.018c-.018-.009-.035-.018-.057-.026l-.145-.066c-.031-.013-.062-.022-.092-.035a1.314,1.314,0,0,0-.141-.044c-.04-.009-.075-.022-.114-.031l-.123-.026c-.044-.009-.092-.013-.137-.022l-.106-.013c-.053,0-.1,0-.154-.009-.022,0-.044,0-.066,0h-8.058L200.306,285a2.543,2.543,0,0,0-4.549-2.276l-6.09,12.175c-.009.018-.018.04-.026.057l-.066.145c-.013.031-.022.066-.035.1a1.241,1.241,0,0,0-.044.137,1.184,1.184,0,0,0-.031.119l-.026.119c-.009.048-.018.1-.022.141s-.009.066-.013.1c0,.053-.009.106-.009.163,0,.022,0,.04,0,.062v.031c0,.053,0,.106.009.154s0,.07.009.1.013.084.018.128.013.084.022.123.018.066.026.1.026.1.04.141c.009.026.022.057.031.084.018.048.035.1.057.145.013.031.026.057.04.088a1.159,1.159,0,0,0,.066.128l.066.106c.022.031.04.066.062.1s.062.079.092.123c.018.022.035.048.053.07.035.04.07.079.11.119a.728.728,0,0,0,.057.062,1.26,1.26,0,0,0,.114.1c.026.022.048.044.075.066l.106.079.1.075a1.048,1.048,0,0,1,.092.057c.044.026.088.053.132.075a.188.188,0,0,0,.031.018.185.185,0,0,0,.044.018,1.672,1.672,0,0,0,.185.079l.084.031.176.053.1.026a1.048,1.048,0,0,0,.163.026c.035,0,.075.013.11.018s.1,0,.15.009.079.009.119.009h8.062l-4.249,8.494a2.543,2.543,0,0,0,4.549,2.276l6.09-12.175c.009-.018.018-.04.026-.057l.066-.145C206.479,296.95,206.492,296.915,206.5,296.884Z" transform="translate(-50.038 -115.048)" fill="#9ccdfb"/>
    <path id="Path_210717" data-name="Path 210717" d="M231.344,140.009,167.837,76.5a2.541,2.541,0,0,0-3.6,0L143.518,97.223v-18a2.546,2.546,0,0,0-2.545-2.545H118.234a2.546,2.546,0,0,0-2.545,2.545v45.829L100.731,140a2.545,2.545,0,0,0,3.6,3.6L119.639,128.3a2.536,2.536,0,0,0,1.14-2.122V81.763h17.653V102.4a2.545,2.545,0,0,0,.361,3.148l.387.387a2.547,2.547,0,0,0,4.328-1.5L166.04,81.9l61.707,61.707a2.544,2.544,0,1,0,3.6-3.6Z" transform="translate(0 0)" fill="#9ccdfb"/>
  </g>
</svg>
