<svg xmlns="http://www.w3.org/2000/svg" width="148.412" height="155.377" viewBox="0 0 148.412 155.377">
  <g id="charging-network-icon-vector" transform="translate(-100.01 -92.94)">
    <path id="Path_210720" data-name="Path 210720" d="M132.047,142.785a2.864,2.864,0,0,0,4.571,0c.495-.658,12.13-16.112,14.5-19.58a18.265,18.265,0,0,0,3.473-11.5c0-10.344-9.087-18.764-20.263-18.764A20.991,20.991,0,0,0,120.1,98.347,17.961,17.961,0,0,0,114.07,111.7a18.27,18.27,0,0,0,3.473,11.507C119.912,126.673,131.552,142.132,132.047,142.785Zm-8.093-40.213a15.273,15.273,0,0,1,10.374-3.908c8.019,0,14.539,5.852,14.539,13.05a12.629,12.629,0,0,1-2.473,8.266c-1.672,2.449-8.454,11.516-12.066,16.325-3.611-4.808-10.393-13.881-12.066-16.325a12.642,12.642,0,0,1-2.473-8.271A12.315,12.315,0,0,1,123.954,102.572Z" transform="translate(-7.105 0)" fill="#9ccdfb"/>
    <path id="Path_210721" data-name="Path 210721" d="M221.189,214.822c-9.013,0-16.874,2.572-21.8,6.614L153.1,209.093a11.375,11.375,0,0,0,1.35-5.328c0-5.763-4.576-11.027-12.239-14.084a2.86,2.86,0,1,0-2.117,5.313c5.328,2.122,8.637,5.481,8.637,8.766a6.754,6.754,0,0,1-1.954,4.432,2.841,2.841,0,0,0-1.158,1.123,16.476,16.476,0,0,1-2.582,1.8,32.454,32.454,0,0,1-15.805,3.7,32.454,32.454,0,0,1-15.805-3.7c-3.621-2.068-5.694-4.749-5.694-7.361,0-3.285,3.309-6.644,8.642-8.771a2.86,2.86,0,1,0-2.117-5.313c-7.668,3.057-12.244,8.321-12.244,14.084,0,9.409,11.957,16.78,27.223,16.78,9.013,0,16.874-2.572,21.8-6.614l46.293,12.343a11.375,11.375,0,0,0-1.351,5.328c0,3.755,1.9,7.183,5.16,9.948l-41.307,25.422a39.5,39.5,0,0,0-16.676-3.428c-15.266,0-27.223,7.371-27.223,16.78s11.957,16.78,27.223,16.78,27.223-7.371,27.223-16.78c0-3.755-1.9-7.183-5.16-9.948l41.307-25.422a39.5,39.5,0,0,0,16.676,3.428c15.266,0,27.223-7.371,27.223-16.78S236.456,214.822,221.189,214.822Zm-64.236,72.863a32.454,32.454,0,0,1-15.805,3.7,32.454,32.454,0,0,1-15.805-3.7c-3.621-2.068-5.694-4.749-5.694-7.361s2.078-5.293,5.694-7.361a32.454,32.454,0,0,1,15.805-3.7,32.454,32.454,0,0,1,15.805,3.7c3.621,2.068,5.694,4.749,5.694,7.361S160.575,285.617,156.954,287.685ZM237,238.963a35.606,35.606,0,0,1-31.611,0c-3.621-2.068-5.694-4.749-5.694-7.361a6.762,6.762,0,0,1,1.944-4.427,2.852,2.852,0,0,0,1.172-1.138,16.988,16.988,0,0,1,2.577-1.8,35.606,35.606,0,0,1,31.611,0c3.621,2.068,5.694,4.749,5.694,7.361S240.616,236.895,237,238.963Z" transform="translate(0 -48.776)" fill="#9ccdfb"/>
  </g>
</svg>
