<svg xmlns="http://www.w3.org/2000/svg" version="1.1" xmlns:xlink="http://www.w3.org/1999/xlink" xmlns:svgjs="http://svgjs.com/svgjs" width="512" height="512" x="0" y="0" viewBox="0 0 682.667 682.667" style="enable-background:new 0 0 512 512" xml:space="preserve" class=""><g><defs><clipPath id="a" clipPathUnits="userSpaceOnUse"><path d="M0 512h512V0H0Z" fill="#000000" data-original="#000000"></path></clipPath></defs><g clip-path="url(#a)" transform="matrix(1.33333 0 0 -1.33333 0 682.667)"><path d="m0 0-30.786 36.601-.001-.001-226.928-246.022h-.001l-.002-.003 31.404-37.408c1.626-1.206 4.048-1.338 5.764.537L-.143-5.665C1.439-3.937 1.267-1.548 0 0" style="fill-opacity:1;fill-rule:nonzero;stroke:none" transform="translate(364.458 255.223)" fill="#7b6c79" data-original="#7b6c79"></path><path d="M0 0c-6.159 7.337-5.908 18.108.587 25.15l198.05 214.714-15.979 18.996-.001-.001L-44.271 12.836v.001l-.002-.004 31.403-37.408c1.626-1.205 4.049-1.337 5.765.537L7.131-8.495Z" style="fill-opacity:1;fill-rule:nonzero;stroke:none" transform="translate(151.014 32.964)" fill="#665e68" data-original="#665e68"></path><path d="m0 0-31.228 37.252c.875-1.287-2.93-3.029-3.817-4.571l-115.544-198.543c-1.651-2.873.422-6.457 3.735-6.457l51.201 1L.183-4.586C1.071-3.04.881-1.289 0 0" style="fill-opacity:1;fill-rule:nonzero;stroke:none" transform="translate(406.155 465.364)" fill="#7b6c79" data-original="#7b6c79"></path><path d="m0 0 104.951 180.341-19.09 22.773c.875-1.287-2.93-3.03-3.817-4.571L-33.5 0c-1.651-2.873.422-6.457 3.735-6.457l31.278.611C-.385-4.701-1.237-2.151 0 0" style="fill-opacity:1;fill-rule:nonzero;stroke:none" transform="translate(289.066 299.502)" fill="#665e68" data-original="#665e68"></path><path d="M0 0h-70.304c-1.267 0-2.359-1.464-3.13-.643l30.75-36.672a4.277 4.277 0 0 1 3.608-1.952h30.983L4.021-5.86C5.11-3.037 3.026 0 0 0" style="fill-opacity:1;fill-rule:nonzero;stroke:none" transform="translate(195.08 296.045)" fill="#665e68" data-original="#665e68"></path><path d="M0 0c1.651 2.873-.422 6.457-3.736 6.457h-158.103a4.307 4.307 0 0 1-3.946-2.579l-88.496-201.837c-1.249-2.848.837-6.041 3.946-6.041h68.304c3.026 0 5.11-3.036 4.021-5.859l-91.617-237.531c-1.714-4.443 3.981-7.973 7.198-4.462l220.407 240.633c2.532 2.764.571 7.219-3.178 7.219h-64.609c-3.313 0-5.386 3.584-3.735 6.458z" style="fill-opacity:1;fill-rule:nonzero;stroke:none" transform="translate(375.11 498.045)" fill="#fee17d" data-original="#fee17d"></path><path d="M0 0h44.667c-3.109 0-5.195 3.192-3.947 6.04l88.497 201.837a4.307 4.307 0 0 0 3.946 2.579H88.496a4.307 4.307 0 0 1-3.946-2.579L-3.946 6.04C-5.195 3.192-3.109 0 0 0" style="fill-opacity:1;fill-rule:nonzero;stroke:none" transform="translate(124.775 294.046)" fill="#ffce65" data-original="#ffce65"></path><path d="M0 0c1.089 2.823-.994 5.86-4.021 5.86h-44.667c3.027 0 5.111-3.037 4.022-5.86l-91.617-237.53c-1.714-4.444 3.981-7.973 7.198-4.462l61.751 67.417z" style="fill-opacity:1;fill-rule:nonzero;stroke:none" transform="translate(241.767 288.185)" fill="#ffce65" data-original="#ffce65"></path><path d="m0 0-31.228 37.252c.876-1.287 1.07-3.029.183-4.571l-113.544-197.543c-1.651-2.873.422-6.457 3.736-6.457h45.2L.183-4.586C1.071-3.04.881-1.289 0 0Z" style="stroke-width:15;stroke-linecap:round;stroke-linejoin:round;stroke-miterlimit:10;stroke-dasharray:none;stroke-opacity:1" transform="translate(406.112 465.364)" fill="none" stroke="#000000" stroke-width="15" stroke-linecap="round" stroke-linejoin="round" stroke-miterlimit="10" stroke-dasharray="none" stroke-opacity="" data-original="#000000"></path><path d="M0 0h-68.305a4.258 4.258 0 0 0-3.13 1.357l30.75-36.672a4.277 4.277 0 0 1 3.608-1.952h28.983L4.021-5.86C5.109-3.037 3.025 0 0 0Z" style="stroke-width:15;stroke-linecap:round;stroke-linejoin:round;stroke-miterlimit:10;stroke-dasharray:none;stroke-opacity:1" transform="translate(193.037 294.045)" fill="none" stroke="#000000" stroke-width="15" stroke-linecap="round" stroke-linejoin="round" stroke-miterlimit="10" stroke-dasharray="none" stroke-opacity="" data-original="#000000"></path><path d="M0 0h-47.715a4.31 4.31 0 0 1-3.946-2.579l-88.496-201.838c-1.249-2.847.837-6.039 3.946-6.039h68.305c3.025 0 5.109-3.037 4.02-5.86l-91.617-237.531c-1.714-4.443 3.983-7.973 7.198-4.461L72.102-217.676c2.532 2.764.571 7.22-3.178 7.22H4.315c-3.313 0-5.386 3.584-3.735 6.456L114.124-6.457C115.775-3.584 113.702 0 110.388 0H35" style="stroke-width:15;stroke-linecap:round;stroke-linejoin:round;stroke-miterlimit:10;stroke-dasharray:none;stroke-opacity:1" transform="translate(260.943 504.502)" fill="none" stroke="#000000" stroke-width="15" stroke-linecap="round" stroke-linejoin="round" stroke-miterlimit="10" stroke-dasharray="none" stroke-opacity="" data-original="#000000"></path><path d="m0 0 91.557 99.958c1.582 1.728 1.41 4.116.142 5.665l-30.786 36.601-.001-.001c.834-1.513.788-3.501-.583-4.998l-220.406-240.632c-1.78-1.944-4.317-1.725-5.94-.392l-.002-.004 31.404-37.408c1.626-1.206 4.049-1.337 5.765.537L-23.78-25.963" style="stroke-width:15;stroke-linecap:round;stroke-linejoin:round;stroke-miterlimit:10;stroke-dasharray:none;stroke-opacity:1" transform="translate(272.716 149.6)" fill="none" stroke="#000000" stroke-width="15" stroke-linecap="round" stroke-linejoin="round" stroke-miterlimit="10" stroke-dasharray="none" stroke-opacity="" data-original="#000000"></path></g></g></svg>